<svg width="36" height="36" viewBox="0 0 36 36" fill="none" xmlns="http://www.w3.org/2000/svg">
<path d="M35.4171 26.9172C35.0093 26.4828 33.5695 25.1984 30.9226 23.4992C28.2562 21.7851 26.2898 20.7164 25.7257 20.4672C25.676 20.4451 25.6212 20.437 25.5673 20.4438C25.5133 20.4505 25.4622 20.4718 25.4195 20.5055C24.5109 21.214 22.9812 22.5156 22.8992 22.5859C22.3695 23.0398 22.3695 23.0398 21.9359 22.8984C21.1734 22.6484 18.8046 21.3906 16.7406 19.3219C14.6765 17.2531 13.3538 14.8258 13.1038 14.064C12.9609 13.6297 12.9609 13.6297 13.4163 13.1C13.4867 13.018 14.789 11.4883 15.4976 10.5805C15.5312 10.5377 15.5525 10.4866 15.5593 10.4326C15.566 10.3787 15.5579 10.3239 15.5359 10.2742C15.2867 9.70936 14.2179 7.74373 12.5038 5.07733C10.8023 2.43123 9.51947 0.99139 9.0851 0.583578C9.04524 0.545963 8.99597 0.519796 8.94248 0.507834C8.889 0.495872 8.83328 0.498558 8.78119 0.515609C7.26282 1.03742 5.79782 1.70321 4.40619 2.50389C3.06277 3.28485 1.79091 4.18286 0.60541 5.18748C0.564027 5.22267 0.533001 5.26845 0.51566 5.31992C0.498318 5.3714 0.495315 5.42662 0.506973 5.47967C0.670254 6.24061 1.45072 9.41717 3.8726 13.8172C6.34369 18.3078 8.05619 20.6086 11.6851 24.225C15.314 27.8414 17.6874 29.657 22.1828 32.1281C26.5828 34.55 29.7609 35.3312 30.5203 35.493C30.5734 35.5045 30.6287 35.5014 30.6803 35.4841C30.7319 35.4668 30.7778 35.4358 30.8132 35.3945C31.8177 34.2091 32.7154 32.9372 33.496 31.5937C34.2966 30.202 34.9624 28.737 35.4843 27.2187C35.501 27.167 35.5036 27.1118 35.4918 27.0588C35.48 27.0058 35.4542 26.9569 35.4171 26.9172Z" fill="white"/>
</svg>
