<svg width="36" height="36" viewBox="0 0 36 36" fill="none" xmlns="http://www.w3.org/2000/svg">
<path d="M32.8751 8.60011C27.6501 0.500105 16.9501 -1.89989 8.67513 3.12511C0.600125 8.15011 -1.99988 19.1001 3.22512 27.1751L3.65012 27.8251L1.90012 34.3751L8.45012 32.6251L9.10013 33.0501C11.9251 34.5751 15.0001 35.4501 18.0501 35.4501C21.3251 35.4501 24.6001 34.5751 27.4251 32.8251C35.5001 27.5751 37.9001 16.8501 32.8751 8.55011V8.60011ZM28.3001 25.4501C27.4251 26.7501 26.3251 27.6251 24.8001 27.8501C23.9251 27.8501 22.8251 28.2751 18.4751 26.5501C14.7751 24.8001 11.7001 21.9501 9.52513 18.6751C8.22513 17.1501 7.55013 15.1751 7.35012 13.2001C7.35012 11.4501 8.00012 9.92511 9.10013 8.82511C9.52513 8.40011 9.97513 8.17511 10.4001 8.17511H11.5001C11.9251 8.17511 12.3751 8.17511 12.6001 9.05011C13.0251 10.1501 14.1251 12.7751 14.1251 13.0001C14.3501 13.2251 14.2501 14.9001 13.2501 15.8501C12.7001 16.4751 12.6001 16.5001 12.8251 16.9501C13.7001 18.2501 14.8001 19.5751 15.8751 20.6751C17.1751 21.7751 18.5001 22.6501 20.0251 23.3001C20.4501 23.5251 20.9001 23.5251 21.1251 23.0751C21.3501 22.6501 22.4251 21.5501 22.8751 21.1001C23.3001 20.6751 23.5251 20.6751 23.9751 20.8751L27.4751 22.6251C27.9001 22.8501 28.3501 23.0501 28.5751 23.2751C28.8001 23.9251 28.8001 24.8001 28.3501 25.4501H28.3001Z" fill="white"/>
</svg>
