<svg width="77" height="76" viewBox="0 0 77 76" fill="none" xmlns="http://www.w3.org/2000/svg">
<path d="M12.4503 39.6668L12.4503 39.6668C13.022 39.3315 13.7634 39.5232 14.1016 40.0978C15.2861 42.1206 16.7466 44.1313 18.4404 46.073L18.5535 45.9743L18.4405 46.073C22.5411 50.7722 30.4612 59.2526 38.1936 64.1753L38.2741 64.2266L38.3547 64.1753C46.0857 59.2526 54.0072 50.7722 58.1064 46.073C61.4451 42.2455 63.8246 38.2207 65.1754 34.1054C66.5752 29.8435 66.8571 26.0808 66.0111 22.8468C65.1645 19.6099 63.1917 16.9175 60.1103 14.7927C54.5695 10.9681 49.9511 11.0709 46.4667 12.4815C42.994 13.8873 40.6684 16.5834 39.6805 17.9142L39.6804 17.9143C39.3566 18.3514 38.8214 18.5763 38.276 18.5763C37.7306 18.5763 37.195 18.3514 36.8705 17.9142C35.8832 16.5826 33.5587 13.8863 30.0861 12.4805C26.6018 11.0699 21.9828 10.9674 16.4394 14.7927C13.8023 16.6121 11.9767 18.8605 10.9783 21.5199C9.98022 24.1783 9.81282 27.2364 10.4737 30.6697C10.5992 31.324 10.1719 31.9565 9.51629 32.0833C8.86103 32.21 8.22966 31.7818 8.10282 31.1259C7.34983 27.2137 7.57913 23.6789 8.74972 20.6021C9.92006 17.5261 12.0348 14.8986 15.068 12.8057C21.0787 8.65905 26.1735 8.57916 30.0983 9.92195C34.0329 11.2681 36.8106 14.0509 38.1606 15.6586L38.2755 15.7954L38.3903 15.6586C39.7396 14.0523 42.5171 11.2694 46.4515 9.92297C50.3761 8.57984 55.4709 8.65905 61.4816 12.8057L61.5668 12.6823L61.4816 12.8058C65.0147 15.2429 67.2934 18.3633 68.3002 22.0642C69.3076 25.7673 69.0449 30.0648 67.4703 34.8587L67.4703 34.8588C66.0213 39.2774 63.4851 43.584 59.9283 47.6604L60.0413 47.759L59.9283 47.6604C55.6022 52.6202 47.125 61.674 38.9033 66.6797C38.7113 66.7955 38.4926 66.8546 38.2755 66.8546C38.0585 66.8546 37.8412 66.7956 37.6477 66.6783C29.4259 61.6713 20.9487 52.6174 16.6227 47.659C14.8287 45.6026 13.2791 43.4686 12.0194 41.3196C11.6825 40.7436 11.8758 40.0035 12.4503 39.6668Z" fill="#28574E" stroke="#F9F9F9" stroke-width="0.3"/>
<path d="M20.2427 36.096L24.1566 26.8297L24.3365 26.4037L24.4409 26.8541L29.2642 47.6604L20.2427 36.096ZM20.2427 36.096C20.053 36.543 19.6146 36.8338 19.1309 36.8338H8.613C7.9467 36.8338 7.40586 36.293 7.40586 35.6267C7.40586 34.9604 7.9467 34.4195 8.613 34.4195H18.2311H18.3305L18.3693 34.3279L23.5603 22.0377M20.2427 36.096L23.5603 22.0377M23.5603 22.0377C23.5603 22.0377 23.5603 22.0376 23.5603 22.0376M23.5603 22.0377L23.5603 22.0376M23.5603 22.0376C23.7654 21.5537 24.2546 21.2507 24.7733 21.3047L24.776 21.3049C25.2975 21.3496 25.7307 21.725 25.8477 22.2353L25.8478 22.2357L30.3874 41.8192L30.6785 41.8241L34.659 26.9458L34.659 26.9457C34.8016 26.4116 35.2442 26.0529 35.8408 26.05M23.5603 22.0376L35.8408 26.05M35.8408 26.05C36.3917 26.0566 36.8681 26.4364 36.9984 26.9736L38.8265 34.5301L38.8542 34.6448H38.9723H47.6295C48.2971 34.6448 48.8366 35.1855 48.8366 35.8519C48.8366 36.5183 48.2971 37.0591 47.6295 37.0591H37.9029C37.3452 37.0591 36.8611 36.6777 36.7295 36.1355L35.903 32.7197L35.6123 32.7162L31.6047 47.7004L31.6045 47.701C31.4659 48.2277 30.9871 48.5948 30.4413 48.5948H30.4412H30.4412H30.4412H30.4411H30.4411H30.441H30.441H30.441H30.4409H30.4409H30.4408H30.4408H30.4408H30.4407H30.4407H30.4406H30.4406H30.4406H30.4405H30.4405H30.4404H30.4404H30.4404H30.4403H30.4403H30.4402H30.4402H30.4402H30.4401H30.4401H30.44H30.44H30.44H30.4399H30.4399H30.4398H30.4398H30.4398H30.4397H30.4397H30.4396H30.4396H30.4396H30.4395H30.4395H30.4394H30.4394H30.4393H30.4393H30.4393H30.4392H30.4392H30.4391H30.4391H30.4391H30.439H30.439H30.4389H30.4389H30.4388H30.4388H30.4388H30.4387H30.4387H30.4386H30.4386H30.4386H30.4385H30.4385H30.4384H30.4384H30.4383H30.4383H30.4383H30.4382H30.4382H30.4381H30.4381H30.4381H30.438H30.438H30.4379H30.4379H30.4378H30.4378H30.4378H30.4377H30.4377H30.4376H30.4376H30.4375H30.4375H30.4375H30.4374H30.4374H30.4373H30.4373H30.4373H30.4372H30.4372H30.4371H30.4371H30.437H30.437H30.437H30.4369H30.4369H30.4368H30.4368H30.4367H30.4367H30.4367H30.4366H30.4366H30.4365H30.4365H30.4364H30.4364H30.4364H30.4363H30.4363H30.4362H30.4362H30.4361H30.4361H30.4361H30.436H30.436H30.4359H30.4359H30.4358H30.4358H30.4358H30.4357H30.4357H30.4356H30.4356H30.4355H30.4355H30.4354H30.4354H30.4354H30.4353H30.4353H30.4352H30.4352H30.4351H30.4351H30.4351H30.435H30.435H30.4349H30.4349H30.4348H30.4348H30.4347H30.4347H30.4347H30.4346H30.4346H30.4345H30.4345H30.4344H30.4344H30.4344H30.4343H30.4343H30.4342H30.4342H30.4341H30.4341H30.434H30.434H30.434H30.4339H30.4339H30.4338H30.4338H30.4337H30.4337H30.4336H30.4336H30.4336H30.4335H30.4335H30.4334H30.4334H30.4333H30.4333H30.4332H30.4332H30.4332H30.4331H30.4331H30.433H30.433H30.4329H30.4329H30.4328H30.4328H30.4328H30.4327H30.4327H30.4326H30.4326H30.4325H30.4325H30.4324H30.4324H30.4323H30.4323H30.4323H30.4322H30.4322H30.4321H30.4321H30.432H30.432H30.4319H30.4319H30.4319H30.4318H30.4318H30.4317H30.4317H30.4316H30.4316H30.4315H30.4315H30.4314H30.4314H30.4314H30.4313H30.4313H30.4312H30.4312H30.4311H30.4311H30.431H30.431H30.4309H30.4309H30.4309H30.4308H30.4308H30.4307H30.4307H30.4306H30.4306H30.4305H30.4305H30.4304H30.4304H30.4304H30.4303H30.4303H30.4302H30.4302H30.4301H30.4301H30.43H30.43H30.4299H30.4299H30.4299H30.4298H30.4298H30.4297H30.4297H30.4296H30.4296H30.4295H30.4295H30.4294H30.4294H30.4293H30.4293H30.4293H30.4292H30.4292H30.4291H30.4291H30.429H30.429H30.4289H30.4289H30.4288H30.4288H30.4287H30.4287H30.4287H30.4286H30.4286H30.4285H30.4285H30.4284H30.4284H30.4283H30.4283H30.4282H30.4282H30.4281H30.4281H30.4281H30.428H30.428H30.4279H30.4279H30.4278H30.4278H30.4277H30.4277H30.4276H30.4276H30.4275H30.4275H30.4274H30.4274H30.4274H30.4273H30.4273H30.4272H30.4272H30.4271H30.4271H30.427H30.427H30.4269H30.4269H30.4268H30.4268H30.4267H30.4267H30.4267H30.4266H30.4266H30.4265H30.4265H30.4264H30.4264H30.4263H30.4263H30.4262H30.4262H30.4261H30.4261H30.426H30.426H30.426H30.4259H30.4259H30.4258H30.4258H30.4257H30.4257H30.4256H30.4256H30.4255H30.4255H30.4254H30.4254H30.4253H30.4253H30.4252H30.4252H30.4252H30.4251H30.4251H30.425H30.425H30.4249H30.4249H30.4248H30.4248H30.4247H30.4247H30.4246H30.4246H30.4245H30.4245H30.4244H30.4244H30.4244H30.4243H30.4243H30.4242H30.4242H30.4241H30.4241H30.424H30.424H30.4239H30.4239H30.4238H30.4238H30.4237H30.4237H30.4236H30.4236H30.4235H30.4235H30.4235H30.4234H30.4234H30.4233H30.4233H30.4232H30.4232H30.4231H30.4231H30.423H30.423H30.4229H30.4229H30.4228H30.4228H30.4227H30.4227H30.4226H30.4226H30.4226H30.4225H30.4225H30.4224H30.4224H30.4223H30.4223H30.4222H30.4222H30.4221H30.4221H30.422H30.422H30.4219H30.4219H30.4218H30.4218H30.4217H30.4217H30.4216H30.4216H30.4216H30.4215H30.4215H30.4214H30.4214H30.4213H30.4213H30.4212H30.4212H30.4211H30.4211H30.421H30.421H30.4209H30.4209H30.4208H30.4208H30.4207H30.4207H30.4207H30.4206H30.4206H30.4205H30.4205H30.4204H30.4204H30.4203H30.4203H30.4202H30.4202H30.4201H30.4201H30.42H30.42H30.4199H30.4199H30.4198H30.4198H30.4197H30.4197H30.4196H30.4196H30.4196C29.8659 48.5846 29.3897 48.1996 29.2642 47.6605L35.8408 26.05Z" fill="#1E232F" stroke="#F9F9F9" stroke-width="0.3"/>
</svg>
