<svg width="68" height="68" viewBox="0 0 68 68" fill="none" xmlns="http://www.w3.org/2000/svg">
<path d="M46.4902 16.5316C45.9486 16.5316 45.4291 16.7346 45.046 17.096C44.663 17.4574 44.4478 17.9475 44.4478 18.4585C44.4478 18.9696 44.663 19.4597 45.046 19.8211C45.4291 20.1824 45.9486 20.3854 46.4902 20.3854C47.6789 20.3854 48.6879 20.7169 49.4231 21.3335C50.1461 21.9385 50.7874 22.9636 50.9508 24.6824C50.9996 25.1914 51.2607 25.6613 51.6766 25.9887C52.0926 26.3161 52.6294 26.4742 53.1689 26.4282C53.7084 26.3822 54.2064 26.1359 54.5535 25.7435C54.9005 25.351 55.068 24.8446 55.0193 24.3356C54.7742 21.8152 53.7653 19.8151 52.1354 18.4508C50.5219 17.102 48.4877 16.5316 46.4902 16.5316ZM30.1715 10.0958C26.3481 7.18229 22.104 6.56183 18.3011 7.26322C14.7656 7.9493 11.5437 9.65568 9.08169 12.146C6.61856 14.6741 4.20036 17.8727 4.01246 22.5513C3.92259 24.8713 4.28614 28.2356 6.18557 30.756L6.19374 30.7637C8.69772 34.0433 9.95992 36.4481 10.4746 39.5774C10.638 40.5794 10.7279 41.67 10.7483 42.9186C10.81 46.0003 11.4561 49.0466 12.6559 51.9134C13.9712 54.9772 16.2219 58.1104 19.886 59.386L19.9758 59.4168L20.0698 59.4399C22.2102 59.9794 24.2036 59.7868 25.7068 58.4572C27.0303 57.2895 27.5817 55.5514 27.8922 53.9868C28.1781 52.5377 28.3211 50.8575 28.464 49.2042L28.5131 48.6146C28.6765 46.7224 28.8603 44.8378 29.2483 43.0574C30.339 38.1515 31.8953 37.2882 32.6183 37.084C34.6239 36.5945 35.8003 36.926 36.5805 37.4617C37.7161 38.2401 38.5821 39.8317 39.1825 42.1787C39.7667 44.464 39.9995 47.0538 40.2078 49.4123C40.5019 52.7497 41.2494 55.7865 42.671 57.7288C43.4103 58.7385 44.4601 59.6172 45.8775 59.9062C47.3072 60.1953 48.696 59.7906 49.9215 59.043C54.4311 56.3299 57.0413 50.6918 57.7561 43.2231C58.0829 39.8664 58.4423 38.2363 58.9693 36.9491C59.3778 35.9471 59.8843 35.1378 60.6767 33.8583C61.1804 33.0509 61.676 32.239 62.1636 31.4227C63.1603 29.7425 64.7942 26.6826 64.9821 23.0985C65.1782 19.3757 63.7975 15.2637 59.1368 11.6874C54.6843 8.27292 50.5342 7.03584 46.8293 7.22468C43.157 7.41737 40.2242 8.98972 38.1368 10.6777L38.0837 10.7162L38.0347 10.7663C35.9923 12.6547 35.0528 12.99 34.4442 12.963C33.7579 12.9399 32.6387 12.435 30.3349 10.2461L30.2573 10.169L30.1715 10.0958ZM12.0881 14.755C13.9615 12.8712 16.4048 11.578 19.0854 11.0515C21.7936 10.5505 24.7469 10.959 27.5205 13.0362C29.7222 15.125 31.8463 16.7205 34.2726 16.8168C36.7889 16.917 38.8558 15.3909 40.8451 13.5642C42.4667 12.2655 44.5622 11.2018 47.0539 11.0746C49.5334 10.9475 52.7155 11.7298 56.5593 14.6779C60.1866 17.4604 61.0362 20.3816 60.9014 22.9097C60.7625 25.5727 59.5207 27.9851 58.5976 29.5459L58.1278 30.3321L57.2864 31.6964C56.4245 33.0799 55.6974 34.2437 55.1623 35.5579C54.427 37.3576 54.0185 39.4232 53.6917 42.8763C53.0177 49.8902 50.6445 54.0407 47.7239 55.7981L47.7075 55.8058C47.0784 56.1912 46.7884 56.1526 46.7312 56.1372C46.6577 56.1218 46.4045 56.0409 46.0327 55.536C45.2403 54.4569 44.5581 52.268 44.2763 49.0924V49.0462C44.072 46.7493 43.8229 43.8821 43.1571 41.2769C42.5035 38.7141 41.3434 35.9625 38.9865 34.3439C37.0013 32.9835 34.4932 32.6367 31.5521 33.3612L31.5072 33.3728C28.5417 34.1821 26.4421 36.899 25.2534 42.2751C24.8041 44.3099 24.5998 46.4102 24.4405 48.2986L24.3915 48.8766C24.2444 50.5723 24.1219 52.0445 23.8768 53.2777C23.5909 54.7036 23.2232 55.3703 22.9169 55.6439C22.7903 55.7595 22.4471 56.0293 21.2135 55.7364C19.163 54.9888 17.5576 53.0657 16.4425 50.4644C15.4348 48.046 14.8898 45.4781 14.8331 42.8801V42.8647C14.8245 41.5667 14.7167 40.2711 14.5104 38.9878C13.8609 35.0376 12.2229 32.0625 9.51059 28.517C8.38727 27.0255 8.01964 24.694 8.09317 22.6977C8.22797 19.3565 9.89456 17.0018 12.0881 14.755Z" fill="#28574E"/>
</svg>
