<svg width="63" height="57" viewBox="0 0 63 57" fill="none" xmlns="http://www.w3.org/2000/svg">
<path d="M43.6471 22.902H43.6474V15.0299V14.9747L43.694 14.9453C49.4359 11.3243 49.5478 7.85188 49.5289 7.33723L49.5288 7.33352H49.5289L49.5316 1.03195C49.5316 1.03194 49.5316 1.03193 49.5316 1.03191C49.5299 0.787883 49.4243 0.552564 49.2348 0.377441C49.0452 0.202135 48.7869 0.101703 48.5157 0.1H13.84H13.84C13.7055 0.0999677 13.5726 0.124426 13.4488 0.17182C13.3249 0.219212 13.2129 0.288508 13.1189 0.3754C13.0249 0.462277 12.9509 0.56499 12.9005 0.677445C12.8501 0.789862 12.8243 0.910037 12.8244 1.03118C12.8244 1.03119 12.8244 1.03121 12.8244 1.03122L12.8287 7.26405L12.8287 7.27367L12.8283 7.27363C12.8219 7.34021 12.7529 8.30499 13.4617 9.73712C14.1704 11.169 15.6598 13.0742 18.7797 15.0173L18.8268 15.0466L18.8268 15.1021L18.8284 22.8628V22.8689L18.8282 22.8689C18.818 23.036 18.6755 25.0261 17.5461 27.0478C16.4136 29.0747 14.2896 31.1307 10.3303 31.4139M43.6471 22.902L10.3232 31.3142M43.6471 22.902L43.6476 22.9087C43.6569 23.0477 43.7991 25.024 44.9283 27.0386C46.0605 29.0586 48.1845 31.1145 52.1438 31.3978C57.0232 31.7479 59.5727 33.2888 60.9049 34.7554C62.2257 36.2094 62.3619 37.6035 62.3714 37.73L62.3741 55.6211C62.3741 55.8653 62.2692 56.1013 62.0796 56.2766C61.8897 56.4522 61.6307 56.5521 61.359 56.5523L1.11671 56.5684C0.845236 56.5669 0.586753 56.4665 0.39693 56.2911C0.207452 56.1161 0.101813 55.8808 0.1 55.6368M43.6471 22.902L0.1 55.6368M10.3303 31.4139L10.3232 31.3142M10.3303 31.4139C10.3303 31.4139 10.3304 31.4139 10.3304 31.4139L10.3232 31.3142M10.3303 31.4139C5.45085 31.764 2.90153 33.305 1.56908 34.7799C0.244567 36.246 0.11027 37.6603 0.1 37.8141M10.3232 31.3142C0.52621 32.0171 0.0190658 37.5087 0 37.8108M0.1 37.8141V37.8108H0M0.1 37.8141V55.6368M0.1 37.8141C0.0999278 37.8152 0.0998618 37.8162 0.0998015 37.8171L0 37.8108M0 37.8108L0.1 55.6368M33.7612 36.1958L33.7618 36.1955C33.1611 34.8715 32.1732 34.206 31.1969 34.1951C30.2217 34.1841 29.22 34.826 28.5901 36.198L28.5844 36.2104L28.5836 36.2099C28.5151 36.3177 28.4544 36.419 28.3972 36.5146L28.3928 36.5219C28.3345 36.6192 28.2793 36.7112 28.2239 36.7959C28.113 36.9656 27.9973 37.1129 27.8423 37.2278C27.5298 37.4597 27.0835 37.5412 26.2655 37.4887M33.7612 36.1958L26.2719 37.3889M33.7612 36.1958L33.7672 36.2059C33.8073 36.2723 33.8456 36.337 33.8826 36.3994C33.9689 36.5451 34.0482 36.6791 34.1277 36.797C34.2426 36.9673 34.3637 37.1133 34.5197 37.2273C34.8346 37.4575 35.268 37.5405 36.0172 37.4947L36.0172 37.4947C36.5028 37.4647 36.8951 37.3196 37.2064 37.0611C37.5168 36.8035 37.7387 36.4398 37.8958 35.9856C38.2082 35.0818 38.2716 33.7939 38.2415 32.1913C38.2644 31.0175 38.2696 29.8254 38.0549 28.8648C37.8398 27.9024 37.3969 27.1438 36.5029 26.8856L36.4932 26.8828L36.4831 26.882C35.9109 26.8364 35.5033 26.8142 35.1748 26.8678C34.8381 26.9227 34.5865 27.0564 34.3223 27.3104L34.322 27.3102L34.3163 27.3167C34.0971 27.5671 33.9146 27.8437 33.774 28.139L33.773 28.1412C33.1927 29.4399 32.2028 30.1217 31.2167 30.146C30.233 30.1702 29.2164 29.5407 28.5794 28.1388L28.5794 28.1387L28.5781 28.1362C28.2985 27.5647 28.0125 27.1976 27.5873 27.0035C27.167 26.8116 26.6284 26.7976 25.867 26.8823L25.8584 26.8833L25.8502 26.8857C24.9584 27.1443 24.5164 27.8977 24.3014 28.8549C24.0867 29.8102 24.091 30.9967 24.1116 32.1691M33.7612 36.1958L24.2116 32.1692M26.2655 37.4887L26.2719 37.3889M26.2655 37.4887C26.2656 37.4887 26.2657 37.4887 26.2658 37.4887L26.2719 37.3889M26.2655 37.4887C25.7962 37.4601 25.4162 37.3157 25.1145 37.0573C24.814 36.7999 24.5988 36.4359 24.4465 35.9811C24.1432 35.0758 24.0804 33.7828 24.1116 32.1691M26.2719 37.3889C24.4666 37.2791 24.149 35.3999 24.2116 32.1692M24.1116 32.1691C24.1116 32.1697 24.1117 32.1703 24.1117 32.1709L24.2116 32.1692M24.1116 32.1691C24.1116 32.1685 24.1117 32.1679 24.1117 32.1672L24.2116 32.1692M14.9556 1.96252H14.8556V2.06252V7.35089C14.8529 7.42987 14.8436 8.22852 15.5505 9.422C16.2637 10.6263 17.703 12.2275 20.603 13.8969L20.6036 13.8972C23.9361 15.7853 26.0489 16.7758 27.6142 17.2948C29.1838 17.8152 30.2012 17.8608 31.3374 17.865H31.3378C33.1302 17.865 35.404 17.5502 41.7501 13.8968C47.5547 10.5555 47.5029 7.48867 47.5002 7.41651L47.5003 7.41651L47.5 7.41297C47.4991 7.3995 47.4976 7.36475 47.4976 7.35276L47.4997 2.06256L47.4998 1.96252H47.3997H14.9556ZM34.4603 19.4674L34.4894 19.3125L34.3368 19.3522C32.3128 19.8784 30.1725 19.8897 28.1421 19.3847L27.9912 19.3472L28.0196 19.5C28.3811 21.4472 28.6075 23.4137 28.6975 25.3876L28.7003 25.4491L28.7566 25.4743C29.3684 25.748 29.7452 26.2492 30.0741 26.7865C30.1427 26.8987 30.2109 27.0151 30.2788 27.1312C30.3698 27.2867 30.4604 27.4417 30.5515 27.5849C30.7135 27.8395 30.8888 28.0772 31.1019 28.2643L31.1407 28.2983L31.1908 28.2865C31.3217 28.2556 31.4362 28.1386 31.5496 27.9823C31.6671 27.8205 31.8006 27.5911 31.9626 27.2968L31.9629 27.2969L31.9663 27.2892C32.3174 26.5002 32.9347 25.835 33.7284 25.3935L33.7771 25.3664L33.7797 25.3107C33.8697 23.3514 34.097 21.3996 34.4603 19.4674ZM2.13122 54.6059L2.13124 54.706L2.23125 54.7059L27.5155 54.6989L27.6767 54.6988L27.6051 54.5544C27.1508 53.6387 27.0457 53.2233 27.0345 52.6895C27.0305 52.4974 27.0387 52.2914 27.0486 52.0403C27.0528 51.9337 27.0574 51.819 27.0614 51.6937C27.075 51.2764 27.0828 50.7507 27.0541 50.0401C27.0534 49.2752 27.0533 48.416 27.0533 47.5126L27.0533 47.3678C27.0533 46.4107 27.0532 45.4076 27.0523 44.4173C27.0515 43.7055 27.0511 42.9922 27.0507 42.3173C27.05 41.2033 27.0495 40.1941 27.0473 39.4697L27.047 39.3652L26.9426 39.3701C26.6514 39.3837 26.3594 39.3743 26.0699 39.3419L26.07 39.3418L26.0649 39.3415C25.0304 39.279 24.2673 38.9523 23.7022 38.4652C23.1359 37.9771 22.7616 37.322 22.5162 36.5922C22.0239 35.1289 22.0567 33.3889 22.0804 32.157L22.0804 32.1548C22.0802 32.0317 22.0794 31.9059 22.0786 31.7778C22.0716 30.6237 22.0635 29.284 22.4096 28.0828C22.7911 26.7586 23.6012 25.6101 25.328 25.0811C25.7244 25.0137 26.1265 24.979 26.5295 24.9772L26.6366 24.9768L26.6288 24.87C26.3122 20.5284 25.9025 19.2396 25.7544 18.9029L25.7452 18.882L25.7278 18.8671C25.614 18.77 25.5267 18.6505 25.4721 18.5183L25.4564 18.4804L25.4187 18.4644C23.9049 17.8228 22.4319 17.1021 21.0068 16.3059L20.858 16.2227V16.3932V22.9154C20.7649 24.6004 20.1172 27.0516 18.521 29.1496C16.9265 31.2453 14.3833 32.9921 10.4882 33.2709L10.4953 33.3706L10.4882 33.2709C6.58743 33.5505 4.50011 34.6464 3.38499 35.7076C2.26966 36.7691 2.13812 37.7853 2.12794 37.8831L2.1274 37.883L2.1274 37.8934L2.13122 54.6059ZM33.3885 52.6791V52.6774L33.3886 51.0197L33.3886 50.9197H33.2886H29.1855H29.08L29.0856 51.0251C29.1084 51.4493 29.1 51.7815 29.0889 52.0591C29.087 52.1057 29.0851 52.151 29.0832 52.1951C29.0738 52.4116 29.0657 52.5997 29.0761 52.7731C29.0888 52.9858 29.1293 53.1806 29.2285 53.392C29.3268 53.6016 29.4809 53.8235 29.7152 54.0934L29.7146 54.0939L29.7245 54.1027C30.0296 54.3726 30.4123 54.5537 30.8255 54.6247C31.2387 54.6958 31.6655 54.6539 32.0538 54.504C32.4421 54.3541 32.7758 54.1023 33.0133 53.7783C33.2509 53.4542 33.3817 53.0722 33.3885 52.6791ZM33.2889 49.0572H33.3889L33.3889 48.9572C33.3892 47.8647 33.3895 46.635 33.3901 45.4033L33.3902 45.3032H33.2901H29.1841H29.084L29.0841 45.4033C29.0846 46.6357 29.0849 47.8652 29.0852 48.9572L29.0852 49.0572H29.1852H33.2889ZM33.2912 43.4407H33.3911L33.3912 43.3408C33.3924 41.4072 33.3944 39.6948 33.3972 38.8134L33.3974 38.7616L33.3551 38.7315C32.7377 38.2933 32.2561 37.7139 31.9574 37.0517L31.9576 37.0515L31.9537 37.0444C31.7963 36.7595 31.664 36.5332 31.5475 36.3712C31.4892 36.2901 31.4328 36.2223 31.3771 36.1704C31.3218 36.1189 31.2621 36.0785 31.1967 36.06L31.1488 36.0464L31.1091 36.0764C30.9406 36.2038 30.7978 36.3796 30.6684 36.5742C30.5453 36.7594 30.4307 36.9673 30.3167 37.1741L30.2992 37.2057C30.0561 37.6466 29.8139 38.0746 29.4798 38.3386L29.4793 38.338L29.4703 38.3472C29.3616 38.4584 29.2435 38.5616 29.1171 38.6557L29.0766 38.6858L29.0768 38.7362C29.0797 39.6188 29.0816 41.368 29.0829 43.3408L29.083 43.4407H29.1829H33.2912ZM60.2429 54.6898L60.3429 54.6898V54.5898L60.343 37.7948V37.7866L60.3416 37.7786L60.3414 37.7773L60.3409 37.7734L60.3389 37.7608C60.3372 37.7505 60.3349 37.7365 60.3316 37.7193C60.3251 37.6849 60.3149 37.6374 60.2995 37.5786C60.2687 37.4611 60.2167 37.2986 60.1301 37.1049C59.9568 36.7173 59.6453 36.2059 59.0884 35.6809C57.9739 34.6303 55.8868 33.5344 51.986 33.2548C48.0908 32.976 45.5476 31.2292 43.9532 29.1399C42.3572 27.0484 41.71 24.6104 41.6178 22.9516L41.6165 16.3276L41.6165 16.1569L41.4676 16.2404C40.0457 17.0375 38.5771 17.7612 37.0684 18.408L37.0269 18.4258L37.0128 18.4687C36.963 18.6205 36.8708 18.7586 36.7445 18.8689L36.7277 18.8836L36.7187 18.904C36.571 19.2395 36.162 20.5271 35.8445 24.8752L35.8368 24.981L35.9429 24.9824C36.3054 24.9874 36.6669 25.0201 37.0236 25.0802C38.7532 25.61 39.5639 26.7606 39.9451 28.0874C40.2906 29.2897 40.282 30.6305 40.2746 31.7862C40.2737 31.9159 40.2729 32.0433 40.2726 32.1679H40.2725L40.2728 32.1737C40.3492 33.5319 40.3118 35.4043 39.6783 36.9021C39.3623 37.6492 38.8999 38.2986 38.2334 38.7464C37.5676 39.1936 36.6897 39.4454 35.5322 39.3834L35.427 39.3778L35.4268 39.4831C35.4224 41.8211 35.42 46.8552 35.4204 49.9864C35.3913 50.7044 35.3991 51.2373 35.4127 51.6614C35.4169 51.7901 35.4215 51.908 35.4258 52.0176C35.4358 52.2714 35.444 52.4804 35.4402 52.675C35.4295 53.2188 35.3247 53.6399 34.8698 54.5523L34.7977 54.6969L34.9593 54.6969L60.2429 54.6898Z" fill="#28574E" stroke="#F9F9F9" stroke-width="0.2"/>
</svg>
