<svg width="68" height="56" viewBox="0 0 68 56" fill="none" xmlns="http://www.w3.org/2000/svg">
<path d="M40.1155 45.5834C39.0634 47.4438 38.4945 49.5325 38.4945 51.6831V55.1271H29.7021V51.6831C29.7021 47.7379 27.7881 44.0008 24.4869 41.5003C21.3288 39.1083 21.1322 34.7059 24.0666 32.0815H24.0667C26.2374 30.1403 26.5679 27.0315 24.8476 24.7368L21.3744 20.1035C15.989 12.9196 21.5511 3.10156 31.0062 3.10156H37.1902C46.6453 3.10156 52.2073 12.9196 46.8222 20.1035L43.3489 24.7368C41.6286 27.0316 41.9592 30.1403 44.1298 32.0817C44.3575 32.2853 44.5664 32.4997 44.7565 32.723" stroke="#28574E" stroke-width="1.5" stroke-miterlimit="10"/>
<path d="M34.0993 35.4092V27.8775C34.0993 25.325 33.3386 22.8084 31.8234 20.6747C31.7574 20.5819 31.6903 20.4897 31.6217 20.3983L28.1485 15.765C27.1054 14.3736 27.5615 13.0859 27.9261 12.4423C28.2907 11.7986 29.176 10.7188 31.0073 10.7188H37.1914C39.0226 10.7188 39.9078 11.7986 40.2725 12.4423C40.6373 13.0859 41.0933 14.3736 40.0502 15.765L36.5769 20.3983C36.5082 20.4898 36.4409 20.5821 36.375 20.6749C34.8599 22.8087 34.0993 25.3251 34.0993 27.8774V35.4092Z" stroke="#28574E" stroke-width="1.5" stroke-miterlimit="10"/>
<path d="M4.03606 13.5006L1.90485 10.1449C0.0686359 7.25364 1.1157 3.53379 4.24344 1.83643C7.37119 0.139063 11.3953 1.10695 13.2315 3.99818L13.9121 5.06967C15.2508 7.17773 17.6974 8.47252 20.3418 8.47252" stroke="#28574E" stroke-width="1.5" stroke-miterlimit="10"/>
<path d="M6.71935 21.541C9.18447 21.541 11.1828 19.6938 11.1828 17.415C11.1828 15.1363 9.18447 13.2891 6.71935 13.2891C4.25423 13.2891 2.25586 15.1363 2.25586 17.415C2.25586 19.6938 4.25423 21.541 6.71935 21.541Z" stroke="#28574E" stroke-width="1.5" stroke-miterlimit="10"/>
<path d="M61.4791 21.541C63.9442 21.541 65.9426 19.6938 65.9426 17.415C65.9426 15.1363 63.9442 13.2891 61.4791 13.2891C59.014 13.2891 57.0156 15.1363 57.0156 17.415C57.0156 19.6938 59.014 21.541 61.4791 21.541Z" stroke="#28574E" stroke-width="1.5" stroke-miterlimit="10"/>
<path d="M64.1612 13.5006L66.2924 10.1449C68.1287 7.25364 67.0816 3.53379 63.9538 1.83643C60.8261 0.139063 56.802 1.10695 54.9657 3.99818L54.2852 5.06967C52.9465 7.17773 50.4999 8.47252 47.8555 8.47252" stroke="#28574E" stroke-width="1.5" stroke-miterlimit="10"/>
<path d="M53.441 55.1296C61.0391 55.1296 67.1985 49.4359 67.1985 42.4125C67.1985 35.389 61.0391 29.6953 53.441 29.6953C45.843 29.6953 39.6836 35.389 39.6836 42.4125C39.6836 49.4359 45.843 55.1296 53.441 55.1296Z" stroke="#1E232F" stroke-width="1.5" stroke-miterlimit="10"/>
<path d="M48.8281 38.2188L57.9761 46.6748" stroke="#1E232F" stroke-width="1.5" stroke-miterlimit="10"/>
<path d="M57.9761 38.2188L48.8281 46.6748" stroke="#1E232F" stroke-width="1.5" stroke-miterlimit="10"/>
</svg>
