<svg width="60" height="61" viewBox="0 0 60 61" fill="none" xmlns="http://www.w3.org/2000/svg">
<path d="M47.264 55.5829C47.0289 55.583 46.8024 55.5012 46.6295 55.3539C46.4567 55.2066 46.3502 55.0045 46.3312 54.7879C46.3122 54.5713 46.3821 54.356 46.5271 54.1849C46.672 54.0138 46.8813 53.8994 47.1134 53.8644C48.7459 53.6203 50.2305 52.8455 51.2999 51.6795C52.3694 50.5135 52.9534 49.0329 52.9469 47.5042C52.947 46.8708 52.8481 46.2407 52.6531 45.6335C52.6183 45.5246 52.607 45.4104 52.6199 45.2975C52.6328 45.1845 52.6697 45.075 52.7284 44.9752C52.7871 44.8754 52.8664 44.7873 52.962 44.7159C53.0575 44.6445 53.1673 44.5911 53.2851 44.5589C53.403 44.5267 53.5265 44.5163 53.6487 44.5282C53.7709 44.5402 53.8893 44.5742 53.9973 44.6285C54.1052 44.6827 54.2006 44.7561 54.2778 44.8444C54.3551 44.9327 54.4128 45.0342 54.4476 45.1431C54.6945 45.9094 54.8206 46.7047 54.8219 47.5042C54.8298 49.4435 54.0886 51.3216 52.7317 52.8006C51.3748 54.2796 49.4913 55.2622 47.4203 55.5717C47.3685 55.579 47.3163 55.5827 47.264 55.5829Z" fill="#28574E"/>
<path d="M12.3023 55.5829C12.2512 55.5826 12.2002 55.5788 12.1497 55.5717C10.0787 55.2622 8.19523 54.2796 6.83831 52.8006C5.48139 51.3216 4.74018 49.4435 4.74811 47.5042C4.74943 46.7047 4.87547 45.9094 5.12236 45.1431C5.15719 45.0342 5.21489 44.9327 5.29216 44.8444C5.36943 44.7561 5.46476 44.6827 5.57271 44.6285C5.68066 44.5742 5.79911 44.5402 5.9213 44.5282C6.04349 44.5163 6.16703 44.5267 6.28485 44.5589C6.40268 44.5911 6.5125 44.6445 6.60803 44.7159C6.70356 44.7873 6.78293 44.8754 6.84162 44.9752C6.90031 45.075 6.93716 45.1845 6.95007 45.2975C6.96298 45.4104 6.9517 45.5246 6.91686 45.6335C6.72194 46.2407 6.62299 46.8708 6.62308 47.5042C6.61657 49.0329 7.20061 50.5135 8.27006 51.6795C9.33951 52.8455 10.8241 53.6203 12.4566 53.8644C12.6887 53.8994 12.898 54.0138 13.0429 54.1849C13.1879 54.356 13.2578 54.5713 13.2388 54.7879C13.2198 55.0045 13.1133 55.2066 12.9405 55.3539C12.7676 55.5012 12.5411 55.583 12.306 55.5829H12.3023Z" fill="#28574E"/>
<path d="M48.2006 14.3066C48.0285 14.3065 47.8598 14.2626 47.713 14.1797C47.5663 14.0967 47.4471 13.978 47.3685 13.8365C47.29 13.695 47.2552 13.5362 47.268 13.3776C47.2807 13.219 47.3406 13.0667 47.4409 12.9375C48.0102 12.2023 48.3141 11.3198 48.3091 10.4156C48.3074 9.36892 47.9023 8.35708 47.1665 7.56155C46.4306 6.76602 45.4123 6.23887 44.294 6.07466C43.1757 5.91044 42.0308 6.11991 41.0645 6.66549C40.0982 7.21107 39.3738 8.05705 39.0213 9.05169C38.94 9.265 38.7717 9.44041 38.5522 9.54035C38.3328 9.64028 38.0797 9.65679 37.8472 9.58633C37.6148 9.51587 37.4214 9.36405 37.3086 9.1634C37.1958 8.96276 37.1724 8.72924 37.2436 8.51288C37.7345 7.12692 38.7438 5.94808 40.0902 5.18793C41.4366 4.42778 43.032 4.1361 44.59 4.36524C46.1481 4.59438 47.5668 5.32934 48.5915 6.4382C49.6162 7.54706 50.1799 8.95722 50.1813 10.4156C50.1878 11.6814 49.7622 12.9168 48.965 13.946C48.8779 14.0581 48.7631 14.1493 48.6301 14.2121C48.4972 14.2748 48.3499 14.3072 48.2006 14.3066Z" fill="#28574E"/>
<path d="M55.4965 24.3052C55.3427 24.3052 55.1913 24.2701 55.0557 24.2031C54.92 24.1361 54.8044 24.0392 54.7189 23.9211C54.6334 23.8029 54.5807 23.667 54.5656 23.5256C54.5504 23.3841 54.5732 23.2414 54.632 23.11C54.9591 22.3667 55.1244 21.5712 55.1185 20.7688C55.1292 19.9144 54.9564 19.0665 54.6101 18.2743C54.2638 17.482 53.7508 16.7612 53.101 16.1535C52.4512 15.5458 51.6773 15.0633 50.8244 14.7341C49.9714 14.4048 49.0562 14.2352 48.1318 14.2352C47.2075 14.2352 46.2923 14.4048 45.4393 14.7341C44.5863 15.0633 43.8125 15.5458 43.1627 16.1535C42.5128 16.7612 41.9999 17.482 41.6536 18.2743C41.3072 19.0665 41.1344 19.9144 41.1451 20.7688C41.1451 20.9982 41.0466 21.2181 40.8711 21.3803C40.6956 21.5425 40.4577 21.6337 40.2095 21.6337C39.9614 21.6337 39.7234 21.5425 39.5479 21.3803C39.3725 21.2181 39.2739 20.9982 39.2739 20.7688C39.2619 19.6864 39.4821 18.6126 39.9219 17.6094C40.3616 16.6062 41.0122 15.6936 41.8359 14.9243C42.6596 14.155 43.6402 13.5443 44.7208 13.1275C45.8015 12.7107 46.9609 12.4961 48.1318 12.4961C49.3028 12.4961 50.4621 12.7107 51.5428 13.1275C52.6235 13.5443 53.604 14.155 54.4278 14.9243C55.2515 15.6936 55.902 16.6062 56.3418 17.6094C56.7816 18.6126 57.0018 19.6864 56.9897 20.7688C56.9963 21.799 56.783 22.8203 56.3619 23.7742C56.2906 23.9318 56.1703 24.0664 56.0163 24.1609C55.8622 24.2554 55.6814 24.3056 55.4965 24.3052Z" fill="#28574E"/>
<path d="M50.7049 37.4499C50.4009 37.4499 50.0996 37.4352 49.803 37.4084C49.6807 37.397 49.5621 37.3635 49.4539 37.3098C49.3456 37.256 49.2499 37.1831 49.1721 37.0952C49.0944 37.0072 49.0361 36.906 49.0007 36.7973C48.9653 36.6885 48.9533 36.5744 48.9656 36.4614C48.9779 36.3484 49.0142 36.2387 49.0723 36.1386C49.1304 36.0386 49.2093 35.9501 49.3045 35.8782C49.3996 35.8063 49.5091 35.7525 49.6267 35.7197C49.7444 35.687 49.8679 35.6759 49.9901 35.6873C50.224 35.7086 50.4614 35.7196 50.7021 35.7202C52.164 35.7216 53.5894 35.2987 54.7773 34.5112C55.9652 33.7237 56.8556 32.6112 57.3229 31.3308C57.7903 30.0505 57.8109 28.6668 57.3819 27.375C56.9529 26.0832 56.096 24.9485 54.932 24.131C54.7335 23.9934 54.6023 23.7885 54.5672 23.5614C54.5321 23.3343 54.596 23.1037 54.7449 22.9202C54.8938 22.7367 55.1154 22.6154 55.3611 22.5829C55.6067 22.5505 55.8563 22.6096 56.0548 22.7472C57.5296 23.7842 58.6153 25.2227 59.1592 26.8601C59.7031 28.4975 59.6777 30.2513 59.0866 31.8747C58.4955 33.4981 57.3685 34.9092 55.8642 35.9093C54.3599 36.9095 52.5542 37.4483 50.7012 37.4499H50.7049Z" fill="#28574E"/>
<path d="M53.5477 46.2519C53.3336 46.252 53.1259 46.1843 52.9593 46.06C52.7927 45.9357 52.6772 45.7623 52.6322 45.5688C52.5872 45.3753 52.6154 45.1733 52.712 44.9967C52.8086 44.8201 52.9679 44.6794 53.1632 44.5983C54.384 44.0878 55.4198 43.2629 56.1466 42.2223C56.8733 41.1817 57.2603 39.9696 57.2612 38.731C57.2673 37.2903 56.7441 35.8904 55.7773 34.7604C55.63 34.5798 55.5651 34.353 55.5966 34.1286C55.6281 33.9043 55.7534 33.7003 55.9456 33.5604C56.1379 33.4204 56.3818 33.3557 56.6251 33.38C56.8684 33.4044 57.0917 33.5158 57.2471 33.6906C58.0746 34.6648 58.6514 35.8003 58.9339 37.0111C59.2165 38.2218 59.1972 39.4762 58.8778 40.6791C58.5583 41.882 57.9469 43.0019 57.0899 43.9541C56.2329 44.9062 55.1528 45.6657 53.9313 46.1749C53.8108 46.2253 53.68 46.2516 53.5477 46.2519Z" fill="#28574E"/>
<path d="M11.3637 14.3066C11.2151 14.3067 11.0685 14.274 10.9363 14.2113C10.804 14.1486 10.6898 14.0576 10.6031 13.946C9.80586 12.9168 9.38022 11.6814 9.38679 10.4156C9.38818 8.95722 9.95181 7.54706 10.9765 6.4382C12.0012 5.32934 13.42 4.59438 14.978 4.36524C16.5361 4.1361 18.1315 4.42778 19.4779 5.18793C20.8243 5.94808 21.8335 7.12692 22.3245 8.51288C22.3658 8.6215 22.3833 8.73666 22.3759 8.8516C22.3685 8.96655 22.3363 9.07897 22.2812 9.18226C22.2262 9.28556 22.1494 9.37765 22.0553 9.45314C21.9612 9.52863 21.8518 9.586 21.7334 9.62188C21.6151 9.65775 21.4901 9.67142 21.366 9.66207C21.2418 9.65273 21.1209 9.62056 21.0104 9.56745C20.8999 9.51434 20.8019 9.44136 20.7223 9.3528C20.6427 9.26423 20.583 9.16186 20.5468 9.05169C20.1953 8.05576 19.4711 7.20834 18.5043 6.6617C17.5376 6.11506 16.3916 5.90503 15.2723 6.06936C14.1531 6.23369 13.1339 6.76159 12.3979 7.55823C11.662 8.35486 11.2575 9.36799 11.2571 10.4156C11.2521 11.3198 11.556 12.2023 12.1253 12.9375C12.2256 13.0667 12.2855 13.219 12.2982 13.3776C12.311 13.5362 12.2762 13.695 12.1977 13.8365C12.1191 13.978 11.9999 14.0967 11.8531 14.1797C11.7063 14.2626 11.5377 14.3065 11.3656 14.3066H11.3637Z" fill="#28574E"/>
<path d="M4.06988 24.3052C3.88458 24.3054 3.70341 24.2546 3.54933 24.1595C3.39526 24.0643 3.27522 23.929 3.20444 23.7707C2.78391 22.8179 2.57058 21.7978 2.57664 20.7688C2.56461 19.6864 2.78484 18.6126 3.22459 17.6094C3.66435 16.6062 4.3149 15.6936 5.13863 14.9243C5.96236 14.155 6.94291 13.5443 8.02359 13.1275C9.10426 12.7107 10.2636 12.4961 11.4346 12.4961C12.6055 12.4961 13.7649 12.7107 14.8455 13.1275C15.9262 13.5443 16.9068 14.155 17.7305 14.9243C18.5542 15.6936 19.2048 16.6062 19.6445 17.6094C20.0843 18.6126 20.3045 19.6864 20.2925 20.7688C20.2925 20.9982 20.1939 21.2181 20.0184 21.3803C19.843 21.5425 19.605 21.6337 19.3569 21.6337C19.1087 21.6337 18.8708 21.5425 18.6953 21.3803C18.5198 21.2181 18.4213 20.9982 18.4213 20.7688C18.432 19.9144 18.2591 19.0665 17.9128 18.2742C17.5665 17.482 17.0536 16.7612 16.4037 16.1535C15.7539 15.5458 14.9801 15.0633 14.1271 14.7341C13.2741 14.4048 12.3589 14.2352 11.4346 14.2352C10.5102 14.2352 9.59501 14.4048 8.74203 14.7341C7.88905 15.0633 7.11522 15.5458 6.46539 16.1535C5.81555 16.7612 5.30262 17.482 4.9563 18.2742C4.60999 19.0665 4.43717 19.9144 4.44787 20.7688C4.44149 21.5723 4.60682 22.3691 4.93439 23.1134C5.02797 23.325 5.02716 23.5622 4.93214 23.7732C4.83712 23.9842 4.65561 24.1518 4.42728 24.2395C4.31388 24.2826 4.19249 24.3049 4.06988 24.3052Z" fill="#28574E"/>
<path d="M8.86105 37.4499C7.00613 37.452 5.19737 36.9154 3.69031 35.9157C2.18326 34.916 1.0541 33.5039 0.462378 31.8788C-0.129348 30.2538 -0.153728 28.4979 0.392682 26.8593C0.939092 25.2207 2.02867 23.7823 3.50747 22.7472C3.70598 22.6096 3.95551 22.5505 4.20115 22.5829C4.4468 22.6154 4.66844 22.7367 4.81733 22.9202C4.96621 23.1037 5.03014 23.3343 4.99505 23.5614C4.95995 23.7885 4.82872 23.9934 4.6302 24.131C3.46966 24.9501 2.61598 26.0848 2.18915 27.3756C1.76232 28.6664 1.78382 30.0484 2.25061 31.3273C2.7174 32.6062 3.60602 33.7178 4.79156 34.5057C5.9771 35.2937 7.39995 35.7184 8.86011 35.7202C9.10088 35.7202 9.33821 35.7092 9.57211 35.6873C9.69437 35.6759 9.81784 35.687 9.93549 35.7197C10.0531 35.7525 10.1627 35.8063 10.2578 35.8782C10.3529 35.9501 10.4318 36.0386 10.4899 36.1386C10.5481 36.2387 10.5843 36.3484 10.5966 36.4614C10.6089 36.5744 10.597 36.6885 10.5616 36.7973C10.5261 36.906 10.4679 37.0072 10.3901 37.0952C10.3123 37.1831 10.2166 37.256 10.1084 37.3098C10.0001 37.3635 9.88149 37.397 9.75924 37.4084C9.46639 37.4352 9.16512 37.4499 8.86105 37.4499Z" fill="#28574E"/>
<path d="M6.01919 46.2533C5.88687 46.253 5.75613 46.2267 5.63559 46.1763C4.41381 45.6674 3.33332 44.9082 2.47594 43.9562C1.61856 43.0042 1.00678 41.8843 0.686922 40.6814C0.367065 39.4785 0.347521 38.224 0.629771 37.0131C0.912021 35.8021 1.48866 34.6664 2.31603 33.692C2.39098 33.6 2.48503 33.5229 2.59267 33.465C2.70031 33.4071 2.81937 33.3696 2.94287 33.3548C3.06637 33.34 3.19182 33.3482 3.31187 33.3788C3.43192 33.4094 3.54416 33.4618 3.642 33.533C3.73985 33.6042 3.82132 33.6928 3.88166 33.7935C3.942 33.8942 3.97998 34.005 3.99338 34.1195C4.00678 34.2339 3.99533 34.3497 3.9597 34.46C3.92406 34.5703 3.86497 34.6729 3.78588 34.7618C2.81904 35.8918 2.29586 37.2917 2.30199 38.7324C2.30284 39.971 2.68981 41.1831 3.41659 42.2237C4.14338 43.2643 5.17917 44.0892 6.39998 44.5997C6.59526 44.6808 6.7545 44.8215 6.85113 44.9981C6.94776 45.1747 6.97592 45.3767 6.93092 45.5702C6.88592 45.7637 6.77048 45.9371 6.60387 46.0614C6.43726 46.1857 6.22956 46.2534 6.01544 46.2533H6.01919Z" fill="#28574E"/>
<path d="M38.9341 60.5517C36.2598 60.549 33.6959 59.5658 31.8049 57.8177C29.9139 56.0697 28.8502 53.6997 28.8472 51.2276V5.49185C28.8055 4.7181 28.9412 3.94493 29.2455 3.22307C29.5497 2.50122 30.0157 1.84699 30.6127 1.30331C31.2709 0.759185 32.0604 0.368444 32.9152 0.163684C33.7699 -0.041076 34.6653 -0.0539184 35.5266 0.126228C39.6693 1.03331 43.5556 2.74536 46.927 5.1485C47.1206 5.29243 47.2443 5.50154 47.2711 5.72983C47.2978 5.95812 47.2254 6.18688 47.0697 6.3658C46.914 6.54471 46.6878 6.65912 46.4408 6.68385C46.1938 6.70859 45.9464 6.64162 45.7528 6.49769C42.6084 4.27667 38.9989 2.6842 35.1533 1.82136C34.5854 1.69641 33.9935 1.69855 33.4267 1.82761C32.8599 1.95668 32.3346 2.20894 31.8945 2.56342C31.4876 2.94821 31.1726 3.40772 30.97 3.91218C30.7674 4.41665 30.6817 4.95482 30.7184 5.49185V51.2276C30.7192 52.9631 31.3628 54.6459 32.5421 55.9962C33.7214 57.3465 35.3653 58.2829 37.2004 58.6494C39.0354 59.0159 40.9509 58.7906 42.6281 58.0108C44.3054 57.2311 45.6432 55.944 46.419 54.3636C46.5216 54.1547 46.7098 53.9919 46.9422 53.9113C47.1746 53.8306 47.4321 53.8385 47.6582 53.9334C47.8843 54.0282 48.0603 54.2022 48.1476 54.417C48.2349 54.6318 48.2263 54.8699 48.1237 55.0789C47.32 56.709 46.0267 58.0915 44.3976 59.0617C42.7684 60.032 40.8721 60.5491 38.9341 60.5517Z" fill="#28574E"/>
<path d="M42.4277 44.9132H42.3501C42.1028 44.8942 41.8738 44.7853 41.7134 44.6103C41.5531 44.4353 41.4745 44.2085 41.4949 43.98C41.6301 43.0791 41.5657 42.1623 41.3058 41.2851C41.0459 40.4079 40.5959 39.5887 39.983 38.8773C38.504 37.4619 36.531 36.5759 34.4133 36.3761C34.1657 36.3596 33.9355 36.2528 33.7731 36.0794C33.6107 35.9059 33.5295 35.6799 33.5474 35.4511C33.5652 35.2223 33.6807 35.0094 33.8683 34.8593C34.056 34.7092 34.3005 34.6342 34.548 34.6507C37.1641 34.8843 39.6001 35.9861 41.4051 37.7521C42.1815 38.6347 42.7553 39.6544 43.0913 40.7488C43.4273 41.8432 43.5186 42.9894 43.3596 44.1175C43.3408 44.3341 43.2345 44.5362 43.0618 44.6836C42.8892 44.831 42.6628 44.913 42.4277 44.9132Z" fill="#28574E"/>
<path d="M36.4561 52.4017H36.4122C36.2894 52.3965 36.169 52.369 36.0577 52.3207C35.9465 52.2725 35.8466 52.2045 35.7638 52.1206C35.681 52.0366 35.6169 51.9384 35.5752 51.8316C35.5334 51.7248 35.5149 51.6114 35.5205 51.4979C35.673 48.4519 37.8221 42.7697 44.842 42.9989C44.9649 43.0031 45.0857 43.0296 45.1975 43.077C45.3092 43.1243 45.4098 43.1916 45.4935 43.2749C45.5771 43.3581 45.6422 43.4558 45.6851 43.5624C45.7279 43.6689 45.7476 43.7822 45.743 43.8958C45.7385 44.0094 45.7098 44.121 45.6586 44.2243C45.6074 44.3276 45.5346 44.4206 45.4445 44.498C45.3544 44.5753 45.2487 44.6355 45.1335 44.6751C45.0182 44.7146 44.8957 44.7328 44.7728 44.7286C37.8437 44.4977 37.4049 51.2886 37.3899 51.5784C37.3783 51.8002 37.275 52.0094 37.1011 52.1627C36.9273 52.3159 36.6964 52.4015 36.4561 52.4017Z" fill="#28574E"/>
<path d="M42.6014 28.284C41.306 28.2851 40.0263 28.0222 38.8534 27.5139C37.6804 27.0056 36.6432 26.2646 35.8154 25.3435C35.7333 25.2567 35.6707 25.1556 35.6315 25.0461C35.5922 24.9367 35.5771 24.821 35.5869 24.7061C35.5967 24.5911 35.6313 24.4791 35.6886 24.3767C35.7459 24.2743 35.8248 24.1835 35.9206 24.1096C36.0165 24.0358 36.1273 23.9804 36.2466 23.9468C36.366 23.9131 36.4914 23.9019 36.6155 23.9137C36.7396 23.9255 36.8599 23.9602 36.9693 24.0156C37.0787 24.071 37.175 24.1461 37.2525 24.2365C38.1677 25.2529 39.3995 25.9839 40.7802 26.33C42.161 26.6761 43.6235 26.6204 44.9688 26.1705C46.3141 25.7206 47.4767 24.8985 48.2983 23.8159C49.1199 22.7333 49.5607 21.443 49.5605 20.1206C49.5605 19.9554 49.554 19.7911 49.5409 19.6285C49.5294 19.5141 49.5426 19.3988 49.5799 19.2893C49.6171 19.1798 49.6775 19.0782 49.7577 18.9904C49.8378 18.9027 49.936 18.8306 50.0466 18.7784C50.1572 18.7261 50.278 18.6947 50.4018 18.6861C50.5257 18.6774 50.6502 18.6916 50.768 18.7279C50.8859 18.7641 50.9947 18.8217 51.0882 18.8973C51.1817 18.9729 51.2581 19.0649 51.3127 19.168C51.3673 19.2711 51.3992 19.3832 51.4065 19.4979C51.4233 19.7037 51.4317 19.9113 51.4317 20.1206C51.4295 22.2849 50.4985 24.36 48.843 25.8904C47.1875 27.4209 44.9428 28.2817 42.6014 28.284Z" fill="#28574E"/>
<path d="M48.1322 33.3087H48.1135C43.5608 33.2266 41.4219 29.5267 40.927 27.5816C40.8731 27.3595 40.9161 27.1267 41.0466 26.9337C41.1771 26.7408 41.3847 26.6031 41.6242 26.5506C41.8638 26.4982 42.1161 26.5351 42.3264 26.6535C42.5368 26.7718 42.6881 26.962 42.7477 27.1829C42.7945 27.3558 43.9238 31.5029 48.1499 31.579C48.3981 31.5812 48.6351 31.6744 48.8089 31.8381C48.9827 32.0018 49.079 32.2227 49.0767 32.4521C49.0743 32.6814 48.9735 32.9006 48.7963 33.0612C48.6192 33.2219 48.3803 33.3109 48.1322 33.3087Z" fill="#28574E"/>
<path d="M20.6318 60.5517C18.6943 60.5486 16.7985 60.0311 15.1699 59.0609C13.5413 58.0907 12.2484 56.7086 11.445 55.0788C11.3424 54.8698 11.3338 54.6318 11.4211 54.4169C11.5084 54.2021 11.6844 54.0281 11.9105 53.9333C12.1365 53.8384 12.3941 53.8305 12.6265 53.9112C12.8589 53.9919 13.0471 54.1546 13.1497 54.3636C13.9265 55.9424 15.2643 57.2279 16.9409 58.0065C18.6175 58.7851 20.5319 59.0099 22.3658 58.6436C24.1997 58.2772 25.8428 57.3417 27.022 55.9926C28.2011 54.6435 28.8453 52.962 28.8474 51.2276V5.49177C28.8841 4.95474 28.7984 4.41657 28.5958 3.9121C28.3932 3.40764 28.0783 2.94813 27.6714 2.56334C27.2315 2.20881 26.7064 1.95651 26.1397 1.82744C25.5731 1.69837 24.9813 1.69626 24.4136 1.82128C20.5674 2.68023 16.9571 4.27081 13.8131 6.49156C13.619 6.62025 13.379 6.67545 13.1423 6.64586C12.9056 6.61627 12.6901 6.50412 12.54 6.3324C12.3899 6.16067 12.3165 5.94238 12.3349 5.72225C12.3533 5.50212 12.462 5.29682 12.6389 5.14842C16.0105 2.74515 19.8972 1.03309 24.0402 0.126149C24.9014 -0.0539245 25.7966 -0.041044 26.6512 0.163716C27.5058 0.368476 28.2951 0.759178 28.9532 1.30323C29.5502 1.84691 30.0161 2.50114 30.3204 3.22299C30.6247 3.94485 30.7604 4.71802 30.7187 5.49177V51.2276C30.7157 53.6996 29.652 56.0697 27.761 57.8177C25.87 59.5657 23.3061 60.5489 20.6318 60.5517Z" fill="#28574E"/>
<path d="M13.9055 47.106C13.6702 47.1068 13.4433 47.0255 13.2699 46.8786C13.0965 46.7316 12.9894 46.5296 12.9698 46.3129C12.8092 45.1834 12.8997 44.0355 13.2357 42.9395C13.5718 41.8435 14.1464 40.8224 14.9243 39.9389C16.7289 38.1727 19.1646 37.0709 21.7805 36.8375C22.0274 36.824 22.2702 36.9002 22.4572 37.0498C22.6442 37.1994 22.7606 37.4106 22.7816 37.6383C22.7905 37.7516 22.7752 37.8654 22.7366 37.9733C22.6979 38.0811 22.6366 38.1808 22.5563 38.2667C22.4759 38.3527 22.378 38.4231 22.2682 38.4741C22.1584 38.525 22.0387 38.5555 21.9162 38.5637C19.7954 38.7684 17.82 39.6563 16.3362 41.0718C15.7266 41.7836 15.2792 42.6022 15.0211 43.4781C14.763 44.3541 14.6996 45.2692 14.8345 46.1685C14.855 46.3971 14.7764 46.6238 14.616 46.7988C14.4556 46.9738 14.2266 47.0827 13.9794 47.1017L13.9055 47.106Z" fill="#28574E"/>
<path d="M19.8753 54.5953C19.6348 54.5955 19.4034 54.5101 19.2292 54.3568C19.0549 54.2035 18.9513 53.994 18.9397 53.7719C18.9238 53.4822 18.4719 46.6722 11.5568 46.9204C11.3087 46.9289 11.067 46.846 10.8851 46.6898C10.7031 46.5336 10.5958 46.317 10.5866 46.0876C10.5774 45.8582 10.6672 45.6349 10.8361 45.4667C11.0051 45.2985 11.2394 45.1992 11.4876 45.1907C18.4981 44.9546 20.6566 50.6437 20.8091 53.6897C20.8147 53.8032 20.7962 53.9166 20.7544 54.0234C20.7127 54.1302 20.6486 54.2284 20.5658 54.3124C20.483 54.3963 20.3831 54.4643 20.2719 54.5125C20.1606 54.5608 20.0402 54.5883 19.9174 54.5935L19.8753 54.5953Z" fill="#28574E"/>
<path d="M29.7827 52.0926H29.7771C29.6541 52.0919 29.5325 52.0688 29.4192 52.0247C29.306 51.9806 29.2032 51.9162 29.1168 51.8353C29.0304 51.7544 28.9622 51.6586 28.9159 51.5533C28.8696 51.448 28.8462 51.3353 28.8471 51.2217C28.9086 49.5255 28.3192 47.864 27.1831 46.5308C26.0471 45.1977 24.4376 44.2789 22.6393 43.9369C22.3956 43.8935 22.1806 43.7623 22.0415 43.5723C21.9025 43.3823 21.8508 43.149 21.8978 42.9237C21.9448 42.6985 22.0867 42.4997 22.2923 42.3712C22.4978 42.2427 22.7502 42.1949 22.9939 42.2383C23.0715 42.2522 30.7698 43.7086 30.7183 51.2329C30.7168 51.4614 30.6176 51.68 30.4423 51.8411C30.267 52.0022 30.0299 52.0926 29.7827 52.0926Z" fill="#28574E"/>
<path d="M29.7829 18.1436C29.6971 18.1437 29.6118 18.1326 29.5293 18.1108C29.4111 18.0799 29.3005 18.0279 29.204 17.9575C29.1075 17.8872 29.027 17.8 28.9669 17.7009C28.9069 17.6018 28.8686 17.4927 28.8541 17.3799C28.8397 17.2671 28.8494 17.1528 28.8828 17.0435C29.3749 15.4279 31.2518 12.4597 34.7949 12.7866C35.0418 12.8096 35.2688 12.9222 35.4258 13.0998C35.5829 13.2774 35.6571 13.5054 35.6323 13.7337C35.6075 13.9619 35.4856 14.1717 35.2935 14.3168C35.1014 14.462 34.8547 14.5307 34.6078 14.5077C31.7224 14.2483 30.6923 17.4803 30.6783 17.5131C30.6232 17.6938 30.5061 17.853 30.3446 17.9668C30.1831 18.0805 29.9859 18.1426 29.7829 18.1436Z" fill="#28574E"/>
<path d="M29.7822 22.4373C29.5789 22.4372 29.3811 22.3758 29.2189 22.2625C29.0567 22.1492 28.9388 21.9902 28.8831 21.8094C28.841 21.6754 27.8118 18.529 24.9535 18.8014C24.7065 18.8244 24.4597 18.7557 24.2675 18.6104C24.0753 18.4652 23.9533 18.2553 23.9285 18.0269C23.9037 17.7986 23.978 17.5705 24.1352 17.3928C24.2923 17.2151 24.5193 17.1024 24.7664 17.0795C28.3217 16.7534 30.1864 19.7216 30.6785 21.3372C30.7119 21.4465 30.7216 21.5609 30.7072 21.6737C30.6927 21.7865 30.6544 21.8955 30.5944 21.9946C30.5343 22.0937 30.4538 22.1809 30.3573 22.2512C30.2608 22.3216 30.1503 22.3736 30.032 22.4045C29.9508 22.426 29.8667 22.4371 29.7822 22.4373Z" fill="#28574E"/>
<path d="M19.2453 29.3183C16.9042 29.316 14.6597 28.4555 13.0041 26.9254C11.3485 25.3953 10.417 23.3207 10.4141 21.1566C10.4141 20.9464 10.4225 20.738 10.4393 20.533C10.4466 20.4184 10.4785 20.3063 10.5331 20.2032C10.5878 20.1 10.6641 20.008 10.7576 19.9325C10.8511 19.8569 10.9599 19.7993 11.0778 19.763C11.1956 19.7268 11.3201 19.7125 11.444 19.7212C11.5678 19.7299 11.6886 19.7613 11.7992 19.8135C11.9098 19.8658 12.008 19.9379 12.0882 20.0256C12.1683 20.1133 12.2287 20.2149 12.266 20.3245C12.3032 20.434 12.3164 20.5493 12.3049 20.6636C12.2918 20.8262 12.2853 20.9905 12.2853 21.1566C12.2855 22.4787 12.7265 23.7687 13.5482 24.8509C14.3698 25.9331 15.5323 26.755 16.8773 27.2047C18.2223 27.6545 19.6845 27.7102 21.065 27.3643C22.4455 27.0184 23.6771 26.2877 24.5923 25.2716C24.671 25.1843 24.7674 25.1122 24.8762 25.0594C24.985 25.0066 25.104 24.9741 25.2264 24.9638C25.3487 24.9534 25.4721 24.9655 25.5894 24.9993C25.7068 25.033 25.8157 25.0878 25.9102 25.1605C26.0046 25.2332 26.0826 25.3223 26.1397 25.4229C26.1969 25.5235 26.232 25.6334 26.2432 25.7465C26.2544 25.8597 26.2413 25.9737 26.2048 26.0822C26.1683 26.1906 26.109 26.2914 26.0304 26.3786C25.2026 27.2995 24.1655 28.0403 22.9927 28.5484C21.82 29.0565 20.5405 29.3194 19.2453 29.3183Z" fill="#28574E"/>
<path d="M13.7102 34.3478C13.462 34.35 13.2231 34.2609 13.046 34.1003C12.8689 33.9396 12.768 33.7205 12.7657 33.4911C12.7633 33.2618 12.8596 33.0409 13.0334 32.8772C13.2072 32.7134 13.4443 32.6202 13.6924 32.618C17.9176 32.5419 19.0478 28.3984 19.0946 28.2219C19.1542 28.0011 19.3056 27.8109 19.5159 27.6925C19.7262 27.5742 19.9785 27.5372 20.2181 27.5897C20.4577 27.6422 20.6652 27.7798 20.7958 27.9728C20.9263 28.1658 20.9692 28.3986 20.9153 28.6206C20.4251 30.5614 18.2806 34.2613 13.7289 34.3478H13.7102Z" fill="#28574E"/>
</svg>
