<svg width="70" height="59" viewBox="0 0 70 59" fill="none" xmlns="http://www.w3.org/2000/svg">
<path d="M13.7949 17.4551C20.7867 14.0364 28.3624 14.0364 35.3543 17.4516" stroke="#28574E" stroke-width="1.5" stroke-miterlimit="10" stroke-linecap="round" stroke-linejoin="round"/>
<path d="M5.45312 9.74466C9.48236 4.55189 16.8946 1 24.5754 1C32.2562 1 39.6646 4.55177 43.6939 9.74466" stroke="#28574E" stroke-width="1.5" stroke-miterlimit="10" stroke-linecap="round" stroke-linejoin="round"/>
<path d="M46.6301 50.6116L38.6028 58.0355L24.5765 45.0698M15.0269 36.2424L8.33883 30.0599C0.693071 22.9923 1.07061 15.3957 5.45418 9.74219L24.5765 27.4185" stroke="#28574E" stroke-width="1.5" stroke-miterlimit="10" stroke-linecap="round" stroke-linejoin="round"/>
<path d="M46.7619 19.408C47.0851 15.9065 45.8938 12.5815 43.6942 9.74219L1 49.2081L10.5495 58.0355L33.7594 36.5807" stroke="#28574E" stroke-width="1.5" stroke-miterlimit="10" stroke-linecap="round" stroke-linejoin="round"/>
<path d="M51.1222 51.1566C60.7339 51.1566 68.5704 43.9126 68.5704 35.0277C68.5704 26.1463 60.7339 18.9023 51.1222 18.9023C41.5143 18.9023 33.6777 26.1463 33.6777 35.0277C33.6777 43.9126 41.5143 51.1566 51.1222 51.1566Z" stroke="#1E232F" stroke-width="1.5" stroke-miterlimit="10" stroke-linecap="round" stroke-linejoin="round"/>
<path d="M54.8009 26.832H47.4471V31.6325H42.2539V38.4267H47.4471V43.2308H54.8009V38.4267H59.9942V31.6325H54.8009V26.832Z" stroke="#1E232F" stroke-width="1.5" stroke-miterlimit="10" stroke-linecap="round" stroke-linejoin="round"/>
</svg>
