<svg width="81" height="79" viewBox="0 0 81 79" fill="none" xmlns="http://www.w3.org/2000/svg">
<path d="M68.6671 34.4828C67.8887 33.9063 67.4671 32.9668 67.5968 32.0274C67.7482 30.8637 67.7806 29.8602 67.7049 29.0702C67.3914 25.9316 65.0995 19.8998 60.2779 16.6864C60.2563 15.8964 60.0293 14.3271 58.6779 12.5656C55.8563 8.92521 49.9536 6.54453 41.132 5.49831C34.1914 4.68696 28.4617 7.44129 23.8671 11.5728C23.413 9.97142 22.5157 8.70102 21.2725 7.91102C19.3914 6.71534 16.9482 6.67264 14.386 7.80426C11.9428 8.8825 9.66169 10.9109 7.96439 13.5157C4.38602 19.003 4.52656 25.4191 8.28872 27.8211C8.59142 28.0133 8.91574 28.1628 9.25088 28.3016C9.28331 28.3122 9.30493 28.3336 9.33737 28.3443C9.35899 28.3549 9.38061 28.3443 9.39142 28.3549C10.0725 28.6005 10.7968 28.7393 11.5752 28.7393C11.9103 28.7393 12.2671 28.7072 12.613 28.6539C10.5266 35.8599 11.7806 43.5891 16.2887 49.5034C18.4184 52.3111 21.1428 54.5744 24.3752 56.2505C24.3103 58.3536 23.7914 66.9902 19.8995 72.4134C19.6401 72.7764 19.7266 73.2782 20.0941 73.5344C20.2347 73.6305 20.3968 73.6838 20.559 73.6838C20.8184 73.6838 21.0671 73.5664 21.2184 73.3422C25.5644 67.2891 25.9644 57.9372 26.0076 56.101C27.0455 54.9801 31.1103 50.1013 30.3211 42.607C29.9644 39.2014 30.7968 36.4578 32.732 34.6749C34.5157 33.0309 37.0995 32.3583 39.813 32.8174C41.8455 33.159 42.8833 34.6536 43.8022 35.9667C44.5157 36.9916 45.1968 37.963 46.2779 38.0911C46.9806 38.1659 47.7049 37.8563 48.4833 37.141C49.4455 36.2656 50.0509 34.9952 50.1914 33.5753C50.386 31.6537 51.0671 28.2482 53.4995 26.9671C53.6833 26.871 53.8563 26.7536 54.0293 26.6362C54.0293 26.7856 54.0725 26.9457 54.159 27.0739C54.3752 27.3834 54.6022 27.6824 54.8401 27.9706C55.0022 28.1734 55.2401 28.2695 55.4779 28.2695C55.6509 28.2695 55.8347 28.2161 55.986 28.0987C56.3428 27.8211 56.3968 27.3194 56.1157 26.9671C55.8995 26.7002 55.6941 26.4333 55.4887 26.1451C55.3482 25.9529 55.1428 25.8461 54.9157 25.8141C55.7266 24.8533 56.1266 23.5829 56.0401 22.0883C55.932 20.2094 57.1644 18.5867 59.1103 18.0529C59.1752 18.0316 59.2401 18.0102 59.3157 17.9889C63.4671 20.7539 65.759 26.1664 66.0617 29.2303C66.1157 29.8175 66.0941 30.5755 66.0076 31.4402C65.8563 31.4829 65.7157 31.5256 65.5644 31.5576C65.1211 31.643 64.8293 32.0594 64.9157 32.4971C64.9914 32.8814 65.3266 33.1483 65.7157 33.1483C65.7698 33.1483 65.813 33.1483 65.8671 33.1376C65.9211 33.127 65.9644 33.1056 66.0184 33.0949C66.213 34.1518 66.7968 35.1126 67.6941 35.7745C72.2455 39.116 73.1752 40.8348 73.1536 41.6889C73.132 42.3721 72.4509 42.8739 71.3914 43.5678L71.0995 43.7599C69.9968 44.4966 69.3698 45.3293 69.2617 46.2153C69.132 47.2189 69.7049 47.8914 69.759 47.9555C70.2671 48.532 70.4941 49.0551 70.4293 49.4928C70.3428 50.0906 69.7265 50.5497 69.3698 50.7739C69.0347 50.9874 68.8293 51.3397 68.8293 51.724C68.8184 52.1083 69.013 52.4713 69.3482 52.6955C69.6833 52.9197 69.9428 53.3574 69.9103 53.6243C69.8887 53.7737 69.7374 53.9018 69.4455 54.0086C68.7211 54.2755 68.1806 54.7666 67.8887 55.4178C67.3698 56.5601 67.759 57.8625 67.8887 58.2468C68.1265 60.1044 67.7698 61.4175 66.8076 62.1541C66.386 62.4851 65.8455 62.6772 65.2509 62.8053C65.132 62.6239 64.9482 62.4851 64.7211 62.4317C64.332 62.357 63.9644 62.5812 63.8238 62.9334C62.1482 62.9441 57.2941 61.3001 56.6779 61.1079C56.6671 61.1079 56.6671 61.0972 56.6671 61.0972C54.4617 60.3499 49.8995 58.3749 47.0563 55.9089C47.186 55.4818 46.9482 55.0441 46.5157 54.9053C46.3536 54.8626 46.1914 54.8733 46.0401 54.9267C45.1968 53.9872 44.6347 52.9837 44.5914 51.9695C44.5698 51.5318 44.1914 51.1689 43.7374 51.2116C43.2833 51.2329 42.9374 51.6066 42.959 52.0549C43.1644 56.133 48.732 59.3998 52.5698 61.172C52.5374 61.1826 52.5049 61.1933 52.4725 61.204C49.8238 62.389 47.5536 66.0187 45.3157 72.6056C45.1752 73.022 45.4022 73.481 45.8238 73.6198C45.9103 73.6518 45.9968 73.6625 46.0833 73.6625C46.4184 73.6625 46.7428 73.449 46.8509 73.118C48.9049 67.0649 50.959 63.6487 53.132 62.6666C54.1049 62.2289 55.0671 62.3143 56.0401 62.6025C56.0725 62.6132 56.0941 62.6239 56.1049 62.6239H56.1157C56.6779 62.7947 62.1698 64.6522 64.3644 64.5241H64.386C64.4293 64.5241 64.4617 64.5134 64.5049 64.5028C65.7266 64.4174 66.8833 64.0971 67.7806 63.4032C69.2401 62.2822 69.8022 60.4353 69.4563 57.9266C69.4455 57.8625 69.4347 57.7984 69.413 57.7451C69.3482 57.5636 68.7644 55.9516 69.986 55.4925C71.1644 55.0441 71.4347 54.2328 71.4779 53.7951C71.5644 53.0264 71.186 52.2791 70.6887 51.7667C71.2725 51.297 71.8455 50.6244 71.986 49.717C72.1265 48.7882 71.7698 47.838 70.9374 46.8879C70.9374 46.8879 70.7968 46.6851 70.8293 46.4075C70.8833 46.0018 71.2833 45.5321 71.9644 45.0837L72.2455 44.9022C73.3374 44.187 74.6887 43.3009 74.732 41.7316C74.8293 39.8526 72.9482 37.6214 68.6671 34.4828ZM9.32656 14.3805C10.8617 12.0318 12.8941 10.217 15.0455 9.26683C17.0887 8.37007 18.9806 8.37007 20.386 9.26683C20.4076 9.2775 20.4293 9.29885 20.4509 9.30953C17.1212 12.4482 14.0725 16.4302 11.3914 21.1702C10.4401 22.8463 9.6725 24.5971 9.07791 26.3906C6.15899 24.4156 6.25629 19.0671 9.32656 14.3805ZM10.5806 27.0098C11.1428 25.2697 11.8887 23.5722 12.8076 21.9495C15.413 17.327 18.3644 13.473 21.586 10.4412C22.0293 11.103 22.332 11.9251 22.4725 12.8645C19.3698 15.9925 16.8401 19.697 14.8725 23.1879C14.1914 24.3943 13.6293 25.6326 13.1644 26.8924C12.4184 27.0952 11.4995 27.202 10.5806 27.0098ZM54.4293 22.1737C54.4941 23.2626 54.2455 24.7359 52.7428 25.5366C49.6401 27.1699 48.7968 31.1733 48.5806 33.4045C48.4725 34.4294 48.0509 35.3368 47.3806 35.9453C46.8293 36.4471 46.5482 36.4898 46.4617 36.4684C46.1157 36.4257 45.5968 35.6891 45.1428 35.0379C44.1482 33.618 42.7968 31.6751 40.0833 31.216C36.8617 30.6716 33.7698 31.4936 31.6184 33.4899C29.9968 34.9845 28.1806 37.8029 28.6995 42.7564C29.359 49.0657 26.1482 53.4321 25.013 54.7559C22.0401 53.1972 19.5428 51.0941 17.586 48.5213C12.3103 41.5821 11.813 31.9526 16.3103 23.9779C18.2563 20.5403 20.7536 16.8786 23.813 13.836C23.8887 13.7826 23.9644 13.7186 24.0184 13.6332C27.986 9.76858 32.8833 6.93953 38.732 6.93953C39.4563 6.93953 40.1914 6.98223 40.9374 7.06764C51.2941 8.29534 55.5644 11.2098 57.3374 13.4517C58.3752 14.7541 58.613 15.8964 58.6563 16.5049C56.0184 17.2522 54.2779 19.5689 54.4293 22.1737Z" fill="#28574E"/>
<path d="M62.9048 45.6389L62.0291 45.0624C61.6507 44.8169 61.1534 44.9236 60.9048 45.2866C60.6561 45.6603 60.7534 46.1513 61.1318 46.3969L62.0075 46.9734C62.148 47.0695 62.2994 47.1122 62.4615 47.1122C62.721 47.1122 62.9805 46.984 63.1426 46.7492C63.3805 46.3862 63.2724 45.8845 62.9048 45.6389Z" fill="#1E232F"/>
<path d="M60.7638 52.6L61.5746 53.1338C61.5854 53.1338 61.6503 53.1872 61.6611 53.1872C61.7908 53.2619 61.9314 53.3046 62.0611 53.3046C62.3314 53.3046 62.58 53.1658 62.7422 52.9203C62.98 52.5466 62.8503 52.0449 62.4719 51.7993L61.6611 51.2656C61.2827 51.02 60.7854 51.1268 60.5368 51.4897C60.2881 51.8634 60.3962 52.3651 60.7638 52.6Z" fill="#1E232F"/>
<path d="M65.1095 49.205C65.2608 49.4399 65.5311 49.568 65.7906 49.568C65.9419 49.568 66.0933 49.5253 66.2338 49.4399C66.6122 49.1944 66.7203 48.7033 66.4717 48.3296C66.223 47.956 65.9095 47.6357 65.5311 47.3795C65.1636 47.1233 64.6554 47.2087 64.396 47.5823C64.1365 47.9453 64.2338 48.4471 64.6014 48.7033C64.8068 48.8207 64.969 49.0022 65.1095 49.205Z" fill="#1E232F"/>
<path d="M48.9381 41.0063C48.5057 40.9316 48.0732 41.2091 47.9867 41.6361C47.9435 41.8603 47.9219 42.0845 47.9219 42.3087C47.9219 42.5329 47.9435 42.7571 47.9867 42.9706C48.0624 43.3549 48.3976 43.6218 48.7867 43.6218C48.8408 43.6218 48.8949 43.6218 48.9381 43.6111C49.3813 43.5257 49.6732 43.1094 49.5867 42.6717C49.5651 42.5543 49.5543 42.4368 49.5543 42.3087C49.5543 42.1913 49.5651 42.0632 49.5867 41.9457C49.6624 41.508 49.3813 41.0917 48.9381 41.0063Z" fill="#1E232F"/>
<path d="M64.3747 52.8988C64.5368 53.123 64.7855 53.2511 65.0449 53.2511C65.2071 53.2511 65.3585 53.2084 65.499 53.1123C65.8774 52.8561 66.1909 52.5358 66.4612 52.1408L66.472 52.1195C66.7098 51.7458 66.5909 51.2654 66.2125 51.0306C65.8341 50.7957 65.3368 50.9025 65.0882 51.2761C64.9477 51.479 64.7747 51.6498 64.5801 51.7885C64.2233 52.0341 64.126 52.5358 64.3747 52.8988Z" fill="#1E232F"/>
<path d="M50.3096 45.7562L51.1852 46.3327C51.3258 46.4288 51.4771 46.4715 51.6393 46.4715C51.8987 46.4715 52.1582 46.3434 52.3204 46.1085C52.569 45.7348 52.4717 45.2438 52.0933 44.9982L51.2068 44.4111C50.8285 44.1655 50.3312 44.2723 50.0825 44.6352C49.8339 45.0089 49.9312 45.5107 50.3096 45.7562Z" fill="#1E232F"/>
<path d="M57.2835 50.3149L58.1592 50.8913C58.2997 50.9874 58.4511 51.0301 58.6132 51.0301C58.8727 51.0301 59.1321 50.902 59.2943 50.6671C59.5429 50.2935 59.4456 49.8024 59.0673 49.5569L58.1916 48.9804C57.8132 48.7349 57.3159 48.8416 57.0673 49.2046C56.8078 49.5782 56.9051 50.0693 57.2835 50.3149Z" fill="#1E232F"/>
<path d="M55.0565 40.5038C54.6781 40.2583 54.1808 40.365 53.9321 40.728C53.6835 41.1017 53.7808 41.5927 54.1592 41.8383L55.0348 42.4148C55.1754 42.5109 55.3267 42.5536 55.4889 42.5536C55.7483 42.5536 56.0078 42.4255 56.17 42.1906C56.4186 41.8169 56.3213 41.3259 55.9429 41.0803L55.0565 40.5038Z" fill="#1E232F"/>
<path d="M52.0284 38.8809C51.5743 38.8061 51.1203 38.8275 50.677 38.9236C50.2338 39.0197 49.9635 39.4467 50.0608 39.8844C50.1473 40.258 50.4824 40.5143 50.85 40.5143C50.9041 40.5143 50.9689 40.5036 51.023 40.4929C51.2608 40.4395 51.5095 40.4288 51.7473 40.4716C52.1905 40.5356 52.6122 40.2474 52.6878 39.8097C52.7635 39.3613 52.4716 38.9556 52.0284 38.8809Z" fill="#1E232F"/>
<path d="M53.5649 46.9194C53.3163 47.2931 53.4136 47.7842 53.792 48.0297L54.6676 48.5955C54.8082 48.6916 54.9595 48.7343 55.1217 48.7343C55.3812 48.7343 55.6406 48.6062 55.8028 48.3713C56.0514 47.9977 55.9541 47.5066 55.5758 47.261L54.7001 46.6952C54.3217 46.4497 53.8136 46.5565 53.5649 46.9194Z" fill="#1E232F"/>
<path d="M58.5486 42.7878C58.1703 42.5423 57.673 42.6384 57.4243 43.012C57.1757 43.3857 57.273 43.8768 57.6513 44.1223L58.527 44.6988C58.6676 44.7949 58.8189 44.8376 58.9811 44.8376C59.2405 44.8376 59.5 44.7095 59.6622 44.4746C59.9108 44.1009 59.8135 43.6099 59.4351 43.3643L58.5486 42.7878Z" fill="#1E232F"/>
<path d="M55.9961 56.0048C55.5961 55.8126 55.1096 55.9727 54.9042 56.3784C54.7096 56.7734 54.8718 57.2538 55.2826 57.4566L56.1691 57.8837C56.288 57.9371 56.4069 57.9691 56.5258 57.9691C56.8285 57.9691 57.1204 57.7983 57.261 57.5207C57.4556 57.1257 57.2934 56.6453 56.8826 56.4425L55.9961 56.0048Z" fill="#1E232F"/>
<path d="M52.4395 54.3075C52.0395 54.1153 51.553 54.2755 51.3476 54.6811C51.153 55.0761 51.3151 55.5565 51.726 55.7594L52.6124 56.1864C52.7314 56.2398 52.8503 56.2718 52.9692 56.2718C53.2719 56.2718 53.5638 56.101 53.7043 55.8234C53.8989 55.4284 53.7368 54.948 53.3259 54.7452L52.4395 54.3075Z" fill="#1E232F"/>
<path d="M58.461 58.0758C58.2664 58.4708 58.4393 58.9512 58.8393 59.154L59.7258 59.581C59.8447 59.6344 59.9637 59.6664 60.0826 59.6664C60.3853 59.6664 60.6772 59.4956 60.8177 59.2181C61.0123 58.8231 60.8393 58.3427 60.4393 58.1398L59.5528 57.7128C59.142 57.51 58.6555 57.6808 58.461 58.0758Z" fill="#1E232F"/>
<path d="M47.6076 53.9767C47.6833 54.4144 48.1157 54.7026 48.559 54.6279C48.7752 54.5852 49.013 54.5852 49.2401 54.6279C49.2941 54.6386 49.3482 54.6386 49.3914 54.6386C49.7698 54.6386 50.1157 54.3717 50.1914 53.9873C50.2779 53.5496 49.986 53.1333 49.5428 53.0479C49.1103 52.9625 48.6779 52.9625 48.2671 53.0372C47.8239 53.1226 47.532 53.539 47.6076 53.9767Z" fill="#1E232F"/>
<path d="M63.4672 59.5817L63.0996 59.4003C62.6996 59.2081 62.2131 59.3682 62.0077 59.7739C61.8131 60.1689 61.9753 60.6493 62.3861 60.8522L62.7537 61.0336C62.8726 61.087 62.9915 61.1617 63.0996 61.2472C63.251 61.3646 63.4239 61.418 63.5969 61.418C63.8348 61.418 64.0834 61.3112 64.2456 61.1084C64.5158 60.7561 64.451 60.2543 64.105 59.9767C63.8996 59.8166 63.6942 59.6885 63.4672 59.5817Z" fill="#1E232F"/>
<path d="M62.678 31.4618C62.3645 31.3871 62.0401 31.3017 61.7266 31.1843C61.305 31.0348 60.8401 31.2483 60.6888 31.6754C60.5374 32.0917 60.7536 32.5508 61.1861 32.7002C61.5645 32.8283 61.9428 32.9458 62.3212 33.0312C62.3861 33.0418 62.4401 33.0525 62.505 33.0525C62.8726 33.0525 63.2077 32.7963 63.2942 32.4333C63.3915 31.9956 63.1212 31.5579 62.678 31.4618Z" fill="#1E232F"/>
<path d="M58.2671 29.1559C57.9212 28.8676 57.4131 28.9103 57.1212 29.2519C56.8293 29.5936 56.8725 30.0953 57.2185 30.3836C57.5104 30.6291 57.8131 30.864 58.1158 31.0775C58.2563 31.1842 58.4293 31.2269 58.5914 31.2269C58.8401 31.2269 59.0887 31.1095 59.2509 30.896C59.5104 30.533 59.4347 30.0313 59.0671 29.7751C58.8077 29.5829 58.5374 29.3801 58.2671 29.1559Z" fill="#1E232F"/>
</svg>
