<svg width="75" height="74" viewBox="0 0 75 74" fill="none" xmlns="http://www.w3.org/2000/svg">
<mask id="path-1-inside-1_206_4307" fill="white">
<path d="M63.3861 19.4339C66.3611 19.4339 68.7812 17.0139 68.7812 14.04C68.7812 11.0661 66.3611 8.64611 63.3861 8.64611C60.4122 8.64611 57.9922 11.0661 57.9922 14.04C57.9922 14.9384 58.2339 15.7732 58.6247 16.519L53.8991 20.456C50.4165 16.9619 45.6007 14.795 40.2889 14.795C39.9512 14.795 39.6229 14.8286 39.2899 14.8459L38.7441 9.98158C40.0958 9.36992 41.0427 8.01595 41.0427 6.43883C41.0427 4.29283 39.2957 2.54573 37.1497 2.54573C35.0037 2.54573 33.2566 4.29283 33.2566 6.43883C33.2566 8.35473 34.651 9.94342 36.4767 10.2637L37.019 15.0945C34.4937 15.5304 32.1385 16.4554 30.0503 17.777L24.5049 10.0405C25.3698 9.08317 25.9121 7.82749 25.9121 6.43883C25.9121 3.46495 23.492 1.04492 20.5182 1.04492C17.5443 1.04492 15.1242 3.46495 15.1242 6.43883C15.1242 9.41386 17.5443 11.8339 20.5182 11.8339C21.279 11.8339 22.0005 11.672 22.6584 11.3864L28.1876 19.1009C24.4945 22.1014 21.9496 26.4443 21.2662 31.3768L14.8375 31.1884C14.5831 29.9789 13.9506 28.8944 12.9771 28.1081C12.0197 27.3334 10.8161 26.9091 9.58812 26.9091C7.94971 26.9091 6.41999 27.6387 5.39093 28.9117C4.48559 30.0333 4.07049 31.4381 4.22196 32.8719C4.37343 34.3045 5.07412 35.5925 6.19452 36.4979C7.1519 37.2726 8.35556 37.6969 9.58349 37.6969C11.2207 37.6969 12.7505 36.9673 13.7807 35.6943C14.3114 35.0364 14.6513 34.2767 14.8294 33.4754L21.0801 33.6581C21.0778 33.7807 21.0616 33.8998 21.0616 34.0223C21.0616 39.1607 23.0989 43.8239 26.3942 47.2764L23.8909 49.9659C23.3787 49.7173 22.8098 49.5646 22.2028 49.5646C20.0568 49.5646 18.3097 51.3117 18.3097 53.4577C18.3097 55.6037 20.0568 57.3508 22.2028 57.3508C24.3488 57.3508 26.0959 55.6037 26.0959 53.4577C26.0959 52.7513 25.8924 52.0968 25.5617 51.5245L28.0557 48.8455C31.3823 51.595 35.6442 53.2496 40.2866 53.2496C40.8936 53.2496 41.4925 53.2138 42.0845 53.1583L43.5322 62.5343C42.3054 63.0037 41.2694 63.9045 40.6508 65.1243C39.3072 67.7779 40.3733 71.0304 43.0269 72.3752C43.7784 72.7556 44.6202 72.9567 45.4585 72.9567C47.505 72.9567 49.3504 71.8236 50.2754 69.9991C50.9264 68.7133 51.0374 67.2518 50.5876 65.8816C50.139 64.5126 49.1839 63.4003 47.8981 62.7494C47.2426 62.4175 46.5199 62.2325 45.7892 62.1874L44.3415 52.8102C51.0512 51.3626 56.4636 46.4058 58.5622 39.9597L62.2576 40.9217C62.3501 42.9867 64.0463 44.6436 66.1334 44.6436C68.2805 44.6436 70.0276 42.8966 70.0276 40.7505C70.0276 38.6045 68.2805 36.8575 66.1334 36.8575C64.7366 36.8575 63.5191 37.6032 62.8323 38.7109L59.1415 37.7501C59.3797 36.543 59.5115 35.2977 59.5115 34.0223C59.5115 29.5534 57.9656 25.4464 55.3987 22.1777L60.0827 18.2754C61.0008 18.9899 62.1374 19.4339 63.3861 19.4339ZM35.5401 6.43767C35.5401 5.55083 36.2617 4.82933 37.1485 4.82933C38.0353 4.82933 38.7568 5.55083 38.7568 6.43767C38.7568 7.32452 38.0365 8.04602 37.1497 8.04602C36.2617 8.04602 35.5401 7.32452 35.5401 6.43767ZM17.409 6.43767C17.409 4.72295 18.8034 3.32852 20.5182 3.32852C22.2329 3.32852 23.6273 4.72295 23.6273 6.43767C23.6273 8.15239 22.2329 9.54799 20.5182 9.54799C18.8034 9.54799 17.409 8.15239 17.409 6.43767ZM12.0047 34.2559C10.9606 35.5474 8.92559 35.7648 7.63174 34.7196C6.9854 34.1969 6.58187 33.4546 6.49399 32.629C6.40727 31.8023 6.64546 30.993 7.16809 30.3466C7.76124 29.6124 8.64346 29.1915 9.58927 29.1915C10.3061 29.1915 10.9826 29.4297 11.541 29.8818C12.1874 30.4044 12.5909 31.1467 12.6788 31.9723C12.7655 32.8002 12.5261 33.6107 12.0047 34.2559ZM48.4196 66.5916C48.6786 67.3813 48.615 68.2242 48.2392 68.9642C47.7074 70.0176 46.6425 70.6697 45.4619 70.6697C44.9728 70.6697 44.5011 70.5575 44.0617 70.3344C42.532 69.5597 41.918 67.6854 42.6927 66.1568C43.2246 65.1035 44.2895 64.4514 45.47 64.4514C45.9603 64.4514 46.4309 64.5635 46.8702 64.7867C47.6114 65.1625 48.1618 65.803 48.4196 66.5916ZM66.1368 39.1411C67.0248 39.1411 67.7463 39.8626 67.7463 40.7494C67.7463 41.6362 67.0248 42.3577 66.1368 42.3577C65.25 42.3577 64.5285 41.6362 64.5285 40.7494C64.5285 39.8626 65.25 39.1411 66.1368 39.1411ZM22.204 55.0661C21.3171 55.0661 20.5956 54.3446 20.5956 53.4577C20.5956 52.5709 21.3171 51.8494 22.204 51.8494C23.0908 51.8494 23.8123 52.5709 23.8123 53.4577C23.8123 54.3446 23.092 55.0661 22.204 55.0661ZM40.2889 50.9637C30.9464 50.9637 23.3475 43.3637 23.3475 34.0212C23.3475 24.6787 30.9475 17.0798 40.2889 17.0798C49.6302 17.0798 57.2302 24.6787 57.2302 34.0212C57.2302 43.3637 49.6302 50.9637 40.2889 50.9637ZM63.3861 10.9297C65.1008 10.9297 66.4964 12.3241 66.4964 14.0389C66.4964 15.7536 65.1008 17.148 63.3861 17.148C61.6714 17.148 60.277 15.7536 60.277 14.0389C60.277 12.3241 61.6714 10.9297 63.3861 10.9297Z"/>
</mask>
<path d="M63.3861 19.4339C66.3611 19.4339 68.7812 17.0139 68.7812 14.04C68.7812 11.0661 66.3611 8.64611 63.3861 8.64611C60.4122 8.64611 57.9922 11.0661 57.9922 14.04C57.9922 14.9384 58.2339 15.7732 58.6247 16.519L53.8991 20.456C50.4165 16.9619 45.6007 14.795 40.2889 14.795C39.9512 14.795 39.6229 14.8286 39.2899 14.8459L38.7441 9.98158C40.0958 9.36992 41.0427 8.01595 41.0427 6.43883C41.0427 4.29283 39.2957 2.54573 37.1497 2.54573C35.0037 2.54573 33.2566 4.29283 33.2566 6.43883C33.2566 8.35473 34.651 9.94342 36.4767 10.2637L37.019 15.0945C34.4937 15.5304 32.1385 16.4554 30.0503 17.777L24.5049 10.0405C25.3698 9.08317 25.9121 7.82749 25.9121 6.43883C25.9121 3.46495 23.492 1.04492 20.5182 1.04492C17.5443 1.04492 15.1242 3.46495 15.1242 6.43883C15.1242 9.41386 17.5443 11.8339 20.5182 11.8339C21.279 11.8339 22.0005 11.672 22.6584 11.3864L28.1876 19.1009C24.4945 22.1014 21.9496 26.4443 21.2662 31.3768L14.8375 31.1884C14.5831 29.9789 13.9506 28.8944 12.9771 28.1081C12.0197 27.3334 10.8161 26.9091 9.58812 26.9091C7.94971 26.9091 6.41999 27.6387 5.39093 28.9117C4.48559 30.0333 4.07049 31.4381 4.22196 32.8719C4.37343 34.3045 5.07412 35.5925 6.19452 36.4979C7.1519 37.2726 8.35556 37.6969 9.58349 37.6969C11.2207 37.6969 12.7505 36.9673 13.7807 35.6943C14.3114 35.0364 14.6513 34.2767 14.8294 33.4754L21.0801 33.6581C21.0778 33.7807 21.0616 33.8998 21.0616 34.0223C21.0616 39.1607 23.0989 43.8239 26.3942 47.2764L23.8909 49.9659C23.3787 49.7173 22.8098 49.5646 22.2028 49.5646C20.0568 49.5646 18.3097 51.3117 18.3097 53.4577C18.3097 55.6037 20.0568 57.3508 22.2028 57.3508C24.3488 57.3508 26.0959 55.6037 26.0959 53.4577C26.0959 52.7513 25.8924 52.0968 25.5617 51.5245L28.0557 48.8455C31.3823 51.595 35.6442 53.2496 40.2866 53.2496C40.8936 53.2496 41.4925 53.2138 42.0845 53.1583L43.5322 62.5343C42.3054 63.0037 41.2694 63.9045 40.6508 65.1243C39.3072 67.7779 40.3733 71.0304 43.0269 72.3752C43.7784 72.7556 44.6202 72.9567 45.4585 72.9567C47.505 72.9567 49.3504 71.8236 50.2754 69.9991C50.9264 68.7133 51.0374 67.2518 50.5876 65.8816C50.139 64.5126 49.1839 63.4003 47.8981 62.7494C47.2426 62.4175 46.5199 62.2325 45.7892 62.1874L44.3415 52.8102C51.0512 51.3626 56.4636 46.4058 58.5622 39.9597L62.2576 40.9217C62.3501 42.9867 64.0463 44.6436 66.1334 44.6436C68.2805 44.6436 70.0276 42.8966 70.0276 40.7505C70.0276 38.6045 68.2805 36.8575 66.1334 36.8575C64.7366 36.8575 63.5191 37.6032 62.8323 38.7109L59.1415 37.7501C59.3797 36.543 59.5115 35.2977 59.5115 34.0223C59.5115 29.5534 57.9656 25.4464 55.3987 22.1777L60.0827 18.2754C61.0008 18.9899 62.1374 19.4339 63.3861 19.4339ZM35.5401 6.43767C35.5401 5.55083 36.2617 4.82933 37.1485 4.82933C38.0353 4.82933 38.7568 5.55083 38.7568 6.43767C38.7568 7.32452 38.0365 8.04602 37.1497 8.04602C36.2617 8.04602 35.5401 7.32452 35.5401 6.43767ZM17.409 6.43767C17.409 4.72295 18.8034 3.32852 20.5182 3.32852C22.2329 3.32852 23.6273 4.72295 23.6273 6.43767C23.6273 8.15239 22.2329 9.54799 20.5182 9.54799C18.8034 9.54799 17.409 8.15239 17.409 6.43767ZM12.0047 34.2559C10.9606 35.5474 8.92559 35.7648 7.63174 34.7196C6.9854 34.1969 6.58187 33.4546 6.49399 32.629C6.40727 31.8023 6.64546 30.993 7.16809 30.3466C7.76124 29.6124 8.64346 29.1915 9.58927 29.1915C10.3061 29.1915 10.9826 29.4297 11.541 29.8818C12.1874 30.4044 12.5909 31.1467 12.6788 31.9723C12.7655 32.8002 12.5261 33.6107 12.0047 34.2559ZM48.4196 66.5916C48.6786 67.3813 48.615 68.2242 48.2392 68.9642C47.7074 70.0176 46.6425 70.6697 45.4619 70.6697C44.9728 70.6697 44.5011 70.5575 44.0617 70.3344C42.532 69.5597 41.918 67.6854 42.6927 66.1568C43.2246 65.1035 44.2895 64.4514 45.47 64.4514C45.9603 64.4514 46.4309 64.5635 46.8702 64.7867C47.6114 65.1625 48.1618 65.803 48.4196 66.5916ZM66.1368 39.1411C67.0248 39.1411 67.7463 39.8626 67.7463 40.7494C67.7463 41.6362 67.0248 42.3577 66.1368 42.3577C65.25 42.3577 64.5285 41.6362 64.5285 40.7494C64.5285 39.8626 65.25 39.1411 66.1368 39.1411ZM22.204 55.0661C21.3171 55.0661 20.5956 54.3446 20.5956 53.4577C20.5956 52.5709 21.3171 51.8494 22.204 51.8494C23.0908 51.8494 23.8123 52.5709 23.8123 53.4577C23.8123 54.3446 23.092 55.0661 22.204 55.0661ZM40.2889 50.9637C30.9464 50.9637 23.3475 43.3637 23.3475 34.0212C23.3475 24.6787 30.9475 17.0798 40.2889 17.0798C49.6302 17.0798 57.2302 24.6787 57.2302 34.0212C57.2302 43.3637 49.6302 50.9637 40.2889 50.9637ZM63.3861 10.9297C65.1008 10.9297 66.4964 12.3241 66.4964 14.0389C66.4964 15.7536 65.1008 17.148 63.3861 17.148C61.6714 17.148 60.277 15.7536 60.277 14.0389C60.277 12.3241 61.6714 10.9297 63.3861 10.9297Z" fill="#28574E" stroke="#F9F9F9" stroke-width="0.8" mask="url(#path-1-inside-1_206_4307)"/>
<path d="M36.2689 23.8328C39.1323 23.8328 41.4628 26.1633 41.4628 29.0267C41.4628 31.8913 39.1323 34.2218 36.2689 34.2218C33.4055 34.2218 31.075 31.8913 31.075 29.0267C31.075 26.1633 33.4055 23.8328 36.2689 23.8328ZM36.2689 25.7176C34.4437 25.7176 32.9597 27.2015 32.9597 29.0267C32.9597 30.8518 34.4436 32.337 36.2689 32.337C38.0942 32.337 39.5781 30.8518 39.5781 29.0267C39.5781 27.2015 38.0941 25.7176 36.2689 25.7176Z" fill="#1E232F" stroke="#F9F9F9" stroke-width="0.4"/>
<path d="M49.8033 38.9203C47.7677 38.9203 46.1102 37.2628 46.1102 35.2261C46.1102 33.1906 47.7677 31.533 49.8033 31.533C51.8388 31.533 53.4963 33.1906 53.4963 35.2261C53.4963 37.2628 51.8388 38.9203 49.8033 38.9203ZM49.8044 37.0356C50.8018 37.0356 51.6127 36.2245 51.6127 35.2261C51.6127 34.2288 50.8017 33.4178 49.8044 33.4178C48.8071 33.4178 47.9961 34.2288 47.9961 35.2261C47.9961 36.2245 48.807 37.0356 49.8044 37.0356Z" fill="#1E232F" stroke="#F9F9F9" stroke-width="0.4"/>
<path d="M43.8264 42.8246V42.8247C43.8264 44.8603 42.1689 46.5178 40.1333 46.5178C38.0978 46.5178 36.4402 44.8603 36.4402 42.8247C36.4402 40.7892 38.0978 39.1316 40.1333 39.1316C42.1701 39.1316 43.8275 40.7892 43.8264 42.8246ZM38.325 42.8259C38.325 43.8232 39.136 44.6342 40.1333 44.6342L41.7417 42.8259H41.9417C41.9417 42.8258 41.9417 42.8257 41.9417 42.8256C41.9415 41.8284 41.1305 41.0175 40.1333 41.0175C39.136 41.0175 38.325 41.8286 38.325 42.8259Z" fill="#1E232F" stroke="#F9F9F9" stroke-width="0.4"/>
</svg>
