<svg width="60" height="65" viewBox="0 0 60 65" fill="none" xmlns="http://www.w3.org/2000/svg">
<path d="M55.6498 20.668L50.7381 21.6416L51.9427 24.6026L46.5059 25.5076" stroke="#1E232F" stroke-width="1.5" stroke-miterlimit="10" stroke-linecap="round" stroke-linejoin="round"/>
<path d="M58.5396 31.0288L53.558 30.4102L53.5887 33.5688L48.1387 32.7217" stroke="#1E232F" stroke-width="1.5" stroke-miterlimit="10" stroke-linecap="round" stroke-linejoin="round"/>
<path d="M55.6395 43.7728L52.183 40.4163L50.0912 42.9318L46.4238 39.125" stroke="#1E232F" stroke-width="1.5" stroke-miterlimit="10" stroke-linecap="round" stroke-linejoin="round"/>
<path d="M3.88867 20.668L8.80034 21.6416L7.59576 24.6026L13.0326 25.5076" stroke="#1E232F" stroke-width="1.5" stroke-miterlimit="10" stroke-linecap="round" stroke-linejoin="round"/>
<path d="M1 31.0288L5.98165 30.4102L5.9509 33.5688L11.4009 32.7217" stroke="#1E232F" stroke-width="1.5" stroke-miterlimit="10" stroke-linecap="round" stroke-linejoin="round"/>
<path d="M3.90039 43.7728L7.35682 40.4163L9.44866 42.9318L13.116 39.125" stroke="#1E232F" stroke-width="1.5" stroke-miterlimit="10" stroke-linecap="round" stroke-linejoin="round"/>
<path d="M34.4196 63.4378V47.3404C34.4196 46.2436 35.1965 45.2994 36.3319 44.799C38.7502 43.7331 40.2896 41.4112 39.7586 38.8251C39.2974 36.5783 37.2167 34.7746 34.6079 34.3545C33.2334 34.1331 31.9212 34.2875 30.7787 34.7153C30.1268 34.9594 29.4123 34.9594 28.7604 34.7153C27.618 34.2876 26.3061 34.1332 24.9318 34.3544C22.3229 34.7744 20.242 36.578 19.7806 38.8248C19.2495 41.411 20.789 43.733 23.2073 44.799C24.3427 45.2994 25.1196 46.2436 25.1196 47.3404V63.4378" stroke="#28574E" stroke-width="1.5" stroke-miterlimit="10" stroke-linecap="round" stroke-linejoin="round"/>
<path d="M34.4196 1V17.0974C34.4196 18.1942 35.1965 19.1384 36.3319 19.6388C38.7502 20.7047 40.2896 23.0266 39.7586 25.6127C39.2974 27.8595 37.2167 29.6631 34.6079 30.0833C33.2334 30.3046 31.9212 30.1502 30.7787 29.7225C30.1268 29.4784 29.4123 29.4784 28.7604 29.7225C27.618 30.1502 26.3061 30.3046 24.9318 30.0834C22.3229 29.6634 20.242 27.8598 19.7806 25.613C19.2495 23.0268 20.789 20.7048 23.2073 19.6388C24.3427 19.1384 25.1196 18.1942 25.1196 17.0974V1" stroke="#28574E" stroke-width="1.5" stroke-miterlimit="10" stroke-linecap="round" stroke-linejoin="round"/>
</svg>
