<svg width="70" height="69" viewBox="0 0 70 69" fill="none" xmlns="http://www.w3.org/2000/svg">
<path d="M0.150391 7.62939e-06H69.1504V69H0.150391V7.62939e-06Z" fill="#F9F9F9"/>
<path d="M40.5301 64.4865C42.6109 63.3221 44.5677 61.8559 46.3358 60.0877C55.5336 50.89 56.5524 36.6116 49.3923 26.2885L55.0902 20.5906C55.9636 19.7173 57.3799 19.7173 58.2532 20.5906L61.0752 23.4126C61.9484 24.2872 63.3648 24.2872 64.2381 23.4126L67.4725 20.1782C68.3458 19.305 68.3458 17.8886 67.4725 17.0153L64.6505 14.1933C63.7772 13.32 63.7772 11.9036 64.6505 11.0303L67.4738 8.20701C68.3471 7.33372 68.3471 5.91734 67.4738 5.04406L64.2395 1.80968C63.3662 0.9364 61.9498 0.9364 61.0765 1.80968L58.2532 4.63302C57.3799 5.5063 55.9636 5.5063 55.0902 4.63302L52.2669 1.80968C51.3923 0.9364 49.9772 0.9364 49.1039 1.80968L45.8682 5.04406C44.9949 5.91734 44.9949 7.33372 45.8682 8.20701L48.6929 11.0303C49.5662 11.9036 49.5662 13.32 48.6929 14.1933L43.0489 19.8373C32.7178 12.4076 18.2413 13.3187 8.93164 22.5771C-1.3631 32.8152 -1.45609 49.5962 8.73219 59.9408C16.306 67.6319 27.4013 69.71 36.8793 66.1751M40.4386 54.1908C33.3517 61.2776 21.8621 61.2776 14.7752 54.1908C7.6883 47.1039 7.6883 35.6142 14.7752 28.5272C21.8621 21.4403 33.3517 21.4403 40.4386 28.5272C47.5256 35.6142 47.5254 47.1039 40.4386 54.1908Z" stroke="#28574E" stroke-width="1.5" stroke-miterlimit="10" stroke-linecap="round" stroke-linejoin="round"/>
<path d="M24.2783 35.1784C24.8668 35.4137 25.4168 35.7698 25.8937 36.2465L27.5913 37.9442L29.2881 36.2465C31.1748 34.3597 34.2343 34.3597 36.1211 36.2465C38.0079 38.1333 38.0079 41.1928 36.1211 43.0796L27.5913 51.6094L19.0615 43.0796C18.1181 42.1362 17.6465 40.9001 17.6465 39.663C17.6465 38.426 18.1181 37.1899 19.0615 36.2465C19.7043 35.6038 20.4826 35.1804 21.3044 34.9752" stroke="#28574E" stroke-width="1.5" stroke-miterlimit="10" stroke-linecap="round" stroke-linejoin="round"/>
</svg>
